<svg width="40" height="40" viewBox="0 0 40 40" fill="none" xmlns="http://www.w3.org/2000/svg">
<path fill-rule="evenodd" clip-rule="evenodd" d="M33.75 37.5C35.8213 37.5 37.5 35.8213 37.5 33.75V18.75C37.5 16.6788 35.8213 15 33.75 15C30.695 15 25.555 15 22.5 15C20.4288 15 18.75 16.6788 18.75 18.75V33.75C18.75 35.8213 20.4288 37.5 22.5 37.5H33.75ZM12.5 37.5C14.5712 37.5 16.25 35.8213 16.25 33.75V18.75C16.25 16.6788 14.5712 15 12.5 15C10.64 15 8.11 15 6.25 15C4.17875 15 2.5 16.6788 2.5 18.75V33.75C2.5 35.8213 4.17875 37.5 6.25 37.5H12.5ZM37.5 8.75V6.25C37.5 4.17875 35.8213 2.5 33.75 2.5H6.25C4.17875 2.5 2.5 4.17875 2.5 6.25V8.75C2.5 10.8212 4.17875 12.5 6.25 12.5H33.75C35.8213 12.5 37.5 10.8212 37.5 8.75Z" fill="#F2FD84"/>
</svg>
