<svg width="40" height="40" viewBox="0 0 40 40" fill="none" xmlns="http://www.w3.org/2000/svg">
<path d="M20.0019 27.8641C18.8197 28.7639 16.3789 30.9891 16.3789 34.0208C16.3789 36.0223 18.0033 37.6506 20 37.6506C21.9967 37.6506 23.6211 36.0223 23.6211 34.0208C23.6211 31.1496 21.1789 28.8199 20.0019 27.8641Z" fill="#F2FD84"/>
<path d="M28.4864 6.96192C28.0473 6.46528 27.2893 6.4352 26.8111 6.88161L21.2967 12.0284V1.24989C21.2967 0.347621 20.2088 -0.326519 19.3941 0.166293C19.2399 0.259575 15.5752 2.49739 11.8723 6.56122C7.37004 11.5025 4.30371 17.5188 4.30371 24.266C4.30371 32.9418 11.3449 40 19.9996 40C16.7105 40 14.0347 37.3176 14.0347 34.0207C14.0347 28.6932 19.2072 25.5386 19.4274 25.4068C19.8133 25.1761 20.2965 25.1869 20.6718 25.4342C20.8879 25.5767 25.9643 28.9816 25.9643 34.0206C25.9644 37.3176 23.2886 40 19.9996 40C28.6543 40 35.6954 32.9418 35.6954 24.266C35.6954 17.7149 32.8046 11.8431 28.4864 6.96192Z" fill="#F2FD84"/>
</svg>
