<svg width="40" height="40" viewBox="0 0 40 40" fill="none" xmlns="http://www.w3.org/2000/svg">
<path d="M30.0516 24.7267C29.7481 22.5866 28.7154 20.6303 27.1408 19.2127C25.5663 17.7951 23.5542 17.01 21.4696 17H19.5268C17.4422 17.01 15.4301 17.7951 13.8555 19.2127C12.281 20.6303 11.2482 22.5866 10.9447 24.7267L10.0135 31.4834C9.98373 31.7018 10.0034 31.9244 10.0709 32.1335C10.1384 32.3427 10.2519 32.5327 10.4024 32.6884C10.7676 33.0674 13.0081 35 20.5 35C27.9919 35 30.2269 33.0749 30.5976 32.6884C30.7481 32.5327 30.8616 32.3427 30.9291 32.1335C30.9966 31.9244 31.0163 31.7018 30.9865 31.4834L30.0516 24.7267Z" fill="#F2FD84"/>
<path d="M12 18.0156C10.1623 19.6604 8.96655 21.8713 8.61534 24.2739L7.91179 29C2.26435 28.9631 0.55301 26.9693 0.267786 26.5631C0.157534 26.4156 0.0788557 26.2481 0.0363987 26.0705C-0.00605825 25.8929 -0.011433 25.7089 0.020592 25.5293L0.438921 23.2401C0.656874 22.0437 1.16875 20.916 1.93116 19.9526C2.69357 18.9892 3.68402 18.2184 4.81853 17.7057C5.95304 17.193 7.19816 16.9535 8.44832 17.0075C9.69848 17.0614 10.9168 17.4072 12 18.0156Z" fill="#F2FD84"/>
<path d="M39.9811 25.5293C40.0105 25.7089 40.0056 25.8929 39.9666 26.0705C39.9277 26.2481 39.8556 26.4156 39.7545 26.5631C39.4931 26.9693 37.9243 28.9631 32.7475 29L32.1026 24.2739C31.7807 21.8713 30.6846 19.6604 29 18.0156C29.9929 17.4072 31.1097 17.0614 32.2557 17.0075C33.4017 16.9535 34.543 17.193 35.583 17.7057C36.623 18.2184 37.5309 18.9892 38.2298 19.9526C38.9286 20.916 39.3979 22.0437 39.5977 23.2401L39.9811 25.5293Z" fill="#F2FD84"/>
<path d="M13 13.7C12.4945 14.4139 11.8235 14.9959 11.0439 15.3963C10.2643 15.7967 9.39922 16.0038 8.52209 15.9999C7.6471 15.9999 6.78464 15.7929 6.00578 15.3957C5.22692 14.9986 4.55395 14.4228 4.04234 13.7159C3.53073 13.0089 3.19511 12.1909 3.06316 11.3294C2.9312 10.4679 3.00668 9.58749 3.28338 8.76073C3.56007 7.93397 4.03006 7.18453 4.65461 6.57418C5.27916 5.96382 6.0404 5.51002 6.87558 5.25017C7.71077 4.99033 8.59599 4.93187 9.45831 5.07962C10.3206 5.22738 11.1354 5.57711 11.8353 6.1C11.634 6.88419 11.5328 7.69055 11.5341 8.49998C11.5357 10.3343 12.0427 12.1329 13 13.7Z" fill="#F2FD84"/>
<path d="M37 10.5C37.0004 11.2224 36.8864 11.9378 36.6646 12.6053C36.4427 13.2729 36.1173 13.8794 35.707 14.3902C35.2967 14.901 34.8096 15.3061 34.2734 15.5824C33.7372 15.8586 33.1626 16.0005 32.5823 15.9999C31.8806 16.0038 31.1885 15.7967 30.5649 15.3963C29.9412 14.9959 29.4044 14.4139 29 13.7C29.7658 12.1329 30.1715 10.3343 30.1727 8.49999C30.1738 7.69056 30.0928 6.88419 29.9317 6.1C30.5881 5.48715 31.3685 5.11395 32.1856 5.02223C33.0027 4.9305 33.8242 5.12386 34.558 5.58065C35.2918 6.03744 35.9089 6.7396 36.3402 7.60847C36.7715 8.47733 37 9.47856 37 10.5Z" fill="#F2FD84"/>
<path d="M21 16C24.866 16 28 12.866 28 9C28 5.13401 24.866 2 21 2C17.134 2 14 5.13401 14 9C14 12.866 17.134 16 21 16Z" fill="#F2FD84"/>
</svg>
