<svg width="40" height="40" viewBox="0 0 40 40" fill="none" xmlns="http://www.w3.org/2000/svg">
<path d="M35.7867 4.54394C35.576 4.1216 35.1523 3.85925 34.6806 3.85925H29.0978C28.1005 3.85925 27.2777 4.6705 27.2635 5.66753L27.2367 8.43566C27.2304 9.0873 27.7569 9.61886 28.4085 9.61886H32.2732C32.4987 9.61886 32.7235 9.67324 32.915 9.79207C33.3172 10.0414 33.5221 10.492 33.4666 10.9396L31.699 25.1803C31.6327 25.715 31.2083 26.1465 30.6517 26.2057C30.2691 26.2463 29.8916 26.0857 29.6365 25.7977C27.8253 23.7529 25.2232 22.5807 22.4938 22.5807C20.9167 22.5807 19.3542 22.9735 17.9753 23.7168C17.974 23.7175 17.9727 23.7179 17.9714 23.7186C17.1549 24.1593 16.4073 24.7163 15.7492 25.3743C15.5196 25.6039 15.2187 25.7187 14.9178 25.7187C14.6173 25.7187 14.3169 25.6043 14.0874 25.3754C13.6256 24.915 13.6538 24.1407 14.1165 23.6812C14.726 23.076 15.3969 22.5401 16.1184 22.081C15.5059 19.5834 13.2602 17.7791 10.6207 17.7791C5.35213 17.7791 0.956041 21.5865 0.0393228 26.5943C-0.11724 27.4498 0.20026 28.3198 0.87487 28.8686C6.6551 33.571 13.86 36.1405 21.3606 36.1405C27.8404 36.1405 34.0762 34.246 39.4279 30.6563C40.8971 22.1532 39.4843 11.9608 35.7867 4.54394Z" fill="#F2FD84"/>
</svg>
