<svg width="40" height="40" viewBox="0 0 40 40" fill="none" xmlns="http://www.w3.org/2000/svg">
<g clip-path="url(#clip0_8_578)">
<path d="M20 37.2973C19.7977 37.2973 19.5954 37.2451 19.4141 37.1404C19.2173 37.0268 14.5399 34.311 9.79534 30.219C6.98331 27.7938 4.73863 25.3883 3.12379 23.0695C1.03411 20.0691 -0.0167512 17.183 0.000201881 14.4914C0.0200456 11.3593 1.14184 8.41388 3.15918 6.19747C5.21058 3.94373 7.94823 2.70264 10.868 2.70264C14.6099 2.70264 18.0311 4.79873 20.0001 8.11919C21.9691 4.7988 25.3902 2.70264 29.1322 2.70264C31.8906 2.70264 34.5224 3.82248 36.543 5.85591C38.7605 8.08739 40.0204 11.2404 39.9998 14.5062C39.9828 17.1932 38.9122 20.0749 36.8179 23.0712C35.1981 25.3888 32.9565 27.7931 30.1555 30.2177C25.4284 34.3093 20.7845 37.025 20.5891 37.1386C20.407 37.2444 20.2034 37.2973 20 37.2973Z" fill="#F2FD84"/>
</g>
<defs>
<clipPath id="clip0_8_578">
<rect width="40" height="40" fill="white"/>
</clipPath>
</defs>
</svg>
