<svg width="164" height="37" viewBox="0 0 164 37" fill="none" xmlns="http://www.w3.org/2000/svg">
<path d="M13.8496 0.810246L1.08271 8.62384C0.406015 9.0375 0 9.7729 0 10.6002V26.3653C0 27.1926 0.406015 27.928 1.08271 28.3417L13.8496 36.1553C14.5714 36.6149 15.4737 36.6149 16.1504 36.1553L28.9173 28.3417C29.594 27.928 30 27.1926 30 26.3653V10.6002C30 9.7729 29.594 9.0375 28.9173 8.62384L16.1504 0.810246C15.4737 0.396585 14.5714 0.396585 13.8496 0.810246ZM15.8797 29.215C9.38346 29.7206 4.01504 24.251 4.55639 17.6325C4.96241 12.4387 9.11278 8.21018 14.2105 7.79652C20.7068 7.29094 26.0752 12.7605 25.5789 19.379C25.1278 24.5728 20.9774 28.8013 15.8797 29.215Z" fill="#F2FD84"/>
<path d="M9.20289 17.5404L14.0751 12.5765C14.6164 12.025 15.4736 12.025 15.9698 12.5765L20.842 17.5404C21.3833 18.092 21.3833 18.9653 20.842 19.4709L15.9698 24.4348C15.4285 24.9863 14.5713 24.9863 14.0751 24.4348L9.20289 19.4709C8.66154 18.9193 8.66154 18.092 9.20289 17.5404Z" fill="#F2FD84"/>
<path d="M43.584 28.5V10.332H46.296V28.5H43.584ZM55.7308 28.788C54.4828 28.788 53.3388 28.492 52.2988 27.9C51.2748 27.308 50.4588 26.5 49.8508 25.476C49.2428 24.452 48.9388 23.292 48.9388 21.996C48.9388 20.684 49.2428 19.524 49.8508 18.516C50.4588 17.492 51.2748 16.692 52.2988 16.116C53.3228 15.524 54.4668 15.228 55.7308 15.228C57.0108 15.228 58.1548 15.524 59.1628 16.116C60.1868 16.692 60.9948 17.492 61.5868 18.516C62.1948 19.524 62.4988 20.684 62.4988 21.996C62.4988 23.308 62.1948 24.476 61.5868 25.5C60.9788 26.524 60.1628 27.332 59.1388 27.924C58.1148 28.5 56.9788 28.788 55.7308 28.788ZM55.7308 26.268C56.4988 26.268 57.1788 26.084 57.7708 25.716C58.3628 25.348 58.8268 24.844 59.1628 24.204C59.5148 23.548 59.6908 22.812 59.6908 21.996C59.6908 21.18 59.5148 20.452 59.1628 19.812C58.8268 19.172 58.3628 18.668 57.7708 18.3C57.1788 17.932 56.4988 17.748 55.7308 17.748C54.9788 17.748 54.2988 17.932 53.6908 18.3C53.0988 18.668 52.6268 19.172 52.2748 19.812C51.9388 20.452 51.7708 21.18 51.7708 21.996C51.7708 22.812 51.9388 23.548 52.2748 24.204C52.6268 24.844 53.0988 25.348 53.6908 25.716C54.2988 26.084 54.9788 26.268 55.7308 26.268ZM71.4105 33.78C70.4665 33.78 69.5945 33.628 68.7945 33.324C67.9945 33.02 67.3065 32.596 66.7305 32.052C66.1545 31.524 65.7225 30.9 65.4345 30.18L67.9305 29.148C68.1545 29.756 68.5625 30.26 69.1545 30.66C69.7625 31.06 70.5065 31.26 71.3865 31.26C72.0745 31.26 72.6905 31.124 73.2345 30.852C73.7785 30.596 74.2105 30.212 74.5305 29.7C74.8505 29.204 75.0105 28.604 75.0105 27.9V24.972L75.4905 25.524C75.0425 26.356 74.4185 26.988 73.6185 27.42C72.8345 27.852 71.9465 28.068 70.9545 28.068C69.7545 28.068 68.6745 27.788 67.7145 27.228C66.7545 26.668 65.9945 25.9 65.4345 24.924C64.8905 23.948 64.6185 22.852 64.6185 21.636C64.6185 20.404 64.8905 19.308 65.4345 18.348C65.9945 17.388 66.7465 16.628 67.6905 16.068C68.6345 15.508 69.7145 15.228 70.9305 15.228C71.9225 15.228 72.8025 15.444 73.5705 15.876C74.3545 16.292 74.9945 16.9 75.4905 17.7L75.1305 18.372V15.516H77.6985V27.9C77.6985 29.02 77.4265 30.02 76.8825 30.9C76.3545 31.796 75.6185 32.5 74.6745 33.012C73.7305 33.524 72.6425 33.78 71.4105 33.78ZM71.2665 25.548C71.9865 25.548 72.6265 25.38 73.1865 25.044C73.7465 24.692 74.1865 24.228 74.5065 23.652C74.8425 23.06 75.0105 22.396 75.0105 21.66C75.0105 20.924 74.8425 20.26 74.5065 19.668C74.1705 19.076 73.7225 18.612 73.1625 18.276C72.6025 17.924 71.9705 17.748 71.2665 17.748C70.5305 17.748 69.8745 17.924 69.2985 18.276C68.7225 18.612 68.2665 19.076 67.9305 19.668C67.6105 20.244 67.4505 20.908 67.4505 21.66C67.4505 22.38 67.6105 23.036 67.9305 23.628C68.2665 24.22 68.7225 24.692 69.2985 25.044C69.8745 25.38 70.5305 25.548 71.2665 25.548ZM87.1371 28.788C85.8891 28.788 84.7451 28.492 83.7051 27.9C82.6811 27.308 81.8651 26.5 81.2571 25.476C80.6491 24.452 80.3451 23.292 80.3451 21.996C80.3451 20.684 80.6491 19.524 81.2571 18.516C81.8651 17.492 82.6811 16.692 83.7051 16.116C84.7291 15.524 85.8731 15.228 87.1371 15.228C88.4171 15.228 89.5611 15.524 90.5691 16.116C91.5931 16.692 92.4011 17.492 92.9931 18.516C93.6011 19.524 93.9051 20.684 93.9051 21.996C93.9051 23.308 93.6011 24.476 92.9931 25.5C92.3851 26.524 91.5691 27.332 90.5451 27.924C89.5211 28.5 88.3851 28.788 87.1371 28.788ZM87.1371 26.268C87.9051 26.268 88.5851 26.084 89.1771 25.716C89.7691 25.348 90.2331 24.844 90.5691 24.204C90.9211 23.548 91.0971 22.812 91.0971 21.996C91.0971 21.18 90.9211 20.452 90.5691 19.812C90.2331 19.172 89.7691 18.668 89.1771 18.3C88.5851 17.932 87.9051 17.748 87.1371 17.748C86.3851 17.748 85.7051 17.932 85.0971 18.3C84.5051 18.668 84.0331 19.172 83.6811 19.812C83.3451 20.452 83.1771 21.18 83.1771 21.996C83.1771 22.812 83.3451 23.548 83.6811 24.204C84.0331 24.844 84.5051 25.348 85.0971 25.716C85.7051 26.084 86.3851 26.268 87.1371 26.268ZM96.5527 28.5V15.516H99.2648V28.5H96.5527ZM96.5527 13.74V10.62H99.2648V13.74H96.5527ZM102.436 33.3V15.516H105.028V18.204L104.716 17.58C105.196 16.844 105.836 16.268 106.636 15.852C107.436 15.436 108.348 15.228 109.372 15.228C110.604 15.228 111.708 15.524 112.684 16.116C113.676 16.708 114.452 17.516 115.012 18.54C115.588 19.564 115.876 20.716 115.876 21.996C115.876 23.276 115.588 24.428 115.012 25.452C114.452 26.476 113.684 27.292 112.708 27.9C111.732 28.492 110.62 28.788 109.372 28.788C108.364 28.788 107.444 28.58 106.612 28.164C105.796 27.748 105.164 27.148 104.716 26.364L105.148 25.86V33.3H102.436ZM109.108 26.268C109.876 26.268 110.556 26.084 111.148 25.716C111.74 25.348 112.204 24.844 112.54 24.204C112.892 23.548 113.068 22.812 113.068 21.996C113.068 21.18 112.892 20.452 112.54 19.812C112.204 19.172 111.74 18.668 111.148 18.3C110.556 17.932 109.876 17.748 109.108 17.748C108.356 17.748 107.676 17.932 107.068 18.3C106.476 18.668 106.004 19.172 105.652 19.812C105.316 20.452 105.148 21.18 105.148 21.996C105.148 22.812 105.316 23.548 105.652 24.204C106.004 24.844 106.476 25.348 107.068 25.716C107.676 26.084 108.356 26.268 109.108 26.268ZM123.314 28.788C121.986 28.788 120.818 28.46 119.81 27.804C118.818 27.148 118.122 26.268 117.722 25.164L119.81 24.18C120.162 24.916 120.642 25.5 121.25 25.932C121.874 26.364 122.562 26.58 123.314 26.58C123.954 26.58 124.474 26.436 124.874 26.148C125.274 25.86 125.474 25.468 125.474 24.972C125.474 24.652 125.386 24.396 125.21 24.204C125.034 23.996 124.81 23.828 124.538 23.7C124.282 23.572 124.018 23.476 123.746 23.412L121.706 22.836C120.586 22.516 119.746 22.036 119.186 21.396C118.642 20.74 118.37 19.98 118.37 19.116C118.37 18.332 118.57 17.652 118.97 17.076C119.37 16.484 119.922 16.028 120.626 15.708C121.33 15.388 122.122 15.228 123.002 15.228C124.186 15.228 125.242 15.524 126.17 16.116C127.098 16.692 127.754 17.5 128.138 18.54L126.05 19.524C125.794 18.9 125.386 18.404 124.826 18.036C124.282 17.668 123.666 17.484 122.978 17.484C122.386 17.484 121.914 17.628 121.562 17.916C121.21 18.188 121.034 18.548 121.034 18.996C121.034 19.3 121.114 19.556 121.274 19.764C121.434 19.956 121.642 20.116 121.898 20.244C122.154 20.356 122.418 20.452 122.69 20.532L124.802 21.156C125.874 21.46 126.698 21.94 127.274 22.596C127.85 23.236 128.138 24.004 128.138 24.9C128.138 25.668 127.93 26.348 127.514 26.94C127.114 27.516 126.554 27.972 125.834 28.308C125.114 28.628 124.274 28.788 123.314 28.788ZM135.427 28.788C134.451 28.788 133.595 28.572 132.859 28.14C132.123 27.692 131.547 27.076 131.131 26.292C130.731 25.492 130.531 24.572 130.531 23.532V15.516H133.243V23.292C133.243 23.884 133.363 24.404 133.603 24.852C133.843 25.3 134.179 25.652 134.611 25.908C135.043 26.148 135.539 26.268 136.099 26.268C136.675 26.268 137.179 26.14 137.611 25.884C138.043 25.628 138.379 25.268 138.619 24.804C138.875 24.34 139.003 23.796 139.003 23.172V15.516H141.691V28.5H139.123V25.956L139.411 26.292C139.107 27.092 138.603 27.708 137.899 28.14C137.195 28.572 136.371 28.788 135.427 28.788ZM144.857 28.5V15.516H147.449V18.324L147.113 17.892C147.385 17.012 147.881 16.348 148.601 15.9C149.321 15.452 150.145 15.228 151.073 15.228C152.113 15.228 153.033 15.508 153.833 16.068C154.649 16.612 155.193 17.34 155.465 18.252L154.697 18.324C155.081 17.284 155.665 16.508 156.449 15.996C157.249 15.484 158.161 15.228 159.185 15.228C160.081 15.228 160.889 15.436 161.609 15.852C162.345 16.268 162.929 16.844 163.361 17.58C163.793 18.316 164.009 19.156 164.009 20.1V28.5H161.297V20.844C161.297 20.188 161.177 19.636 160.937 19.188C160.713 18.724 160.393 18.372 159.977 18.132C159.577 17.876 159.105 17.748 158.561 17.748C158.017 17.748 157.537 17.876 157.121 18.132C156.705 18.372 156.377 18.724 156.137 19.188C155.897 19.652 155.777 20.204 155.777 20.844V28.5H153.089V20.844C153.089 20.188 152.969 19.636 152.729 19.188C152.505 18.724 152.185 18.372 151.769 18.132C151.369 17.876 150.889 17.748 150.329 17.748C149.785 17.748 149.305 17.876 148.889 18.132C148.473 18.372 148.145 18.724 147.905 19.188C147.681 19.652 147.569 20.204 147.569 20.844V28.5H144.857Z" fill="#F2FD84"/>
</svg>
