<svg width="172" height="37" viewBox="0 0 172 37" fill="none" xmlns="http://www.w3.org/2000/svg">
<path d="M29.7092 22.5638V15.9559C29.7092 15.6633 29.4545 15.5057 29.1999 15.6633L21.5593 19.5582C21.3937 19.637 21.2282 19.8621 21.2282 20.0874V27.8885C21.2282 28.1924 21.4828 28.3387 21.7375 28.1924L28.1811 24.894L34.4719 28.1136L18.0828 36.4776L18.0446 36.5L17.9936 36.4776L6.90202 30.8039L1.64273 28.1023L7.89537 24.894L14.3516 28.1924C14.6062 28.3387 14.8609 28.1136 14.7718 27.821V20.0085C14.7718 19.7833 14.6827 19.637 14.428 19.4907L6.78741 15.5845C6.62186 15.5057 6.27803 15.6632 6.27803 15.8883V22.485L0 25.7158V8.90902L16.5547 0.5V6.95029L10.0983 10.2599C9.84365 10.3274 9.84365 10.7102 10.0983 10.7777L17.7389 14.6839C17.9172 14.7627 18.1719 14.8302 18.4266 14.6839L26.0672 10.7777C26.3219 10.7102 26.3219 10.4062 26.0672 10.2599L19.6109 6.95029V0.5L36 8.90902V25.682L29.7092 22.5638Z" fill="#F2FD84"/>
<path d="M49.32 28.5V10.332H52.92V28.5H49.32ZM62.0584 28.788C60.7624 28.788 59.5784 28.492 58.5064 27.9C57.4504 27.308 56.6024 26.5 55.9624 25.476C55.3384 24.436 55.0264 23.26 55.0264 21.948C55.0264 20.62 55.3384 19.444 55.9624 18.42C56.6024 17.396 57.4504 16.588 58.5064 15.996C59.5784 15.404 60.7624 15.108 62.0584 15.108C63.3544 15.108 64.5304 15.404 65.5864 15.996C66.6424 16.588 67.4824 17.396 68.1064 18.42C68.7464 19.444 69.0664 20.62 69.0664 21.948C69.0664 23.26 68.7464 24.436 68.1064 25.476C67.4824 26.5 66.6424 27.308 65.5864 27.9C64.5304 28.492 63.3544 28.788 62.0584 28.788ZM62.0584 25.548C62.7144 25.548 63.2824 25.396 63.7624 25.092C64.2584 24.788 64.6424 24.364 64.9144 23.82C65.2024 23.276 65.3464 22.652 65.3464 21.948C65.3464 21.244 65.2024 20.628 64.9144 20.1C64.6424 19.556 64.2584 19.132 63.7624 18.828C63.2824 18.508 62.7144 18.348 62.0584 18.348C61.4024 18.348 60.8264 18.508 60.3304 18.828C59.8344 19.132 59.4424 19.556 59.1544 20.1C58.8824 20.628 58.7464 21.244 58.7464 21.948C58.7464 22.652 58.8824 23.276 59.1544 23.82C59.4424 24.364 59.8344 24.788 60.3304 25.092C60.8264 25.396 61.4024 25.548 62.0584 25.548ZM77.6192 33.78C76.6112 33.78 75.6752 33.612 74.8112 33.276C73.9472 32.94 73.2032 32.468 72.5792 31.86C71.9712 31.268 71.5312 30.564 71.2592 29.748L74.5952 28.572C74.7712 29.18 75.1312 29.66 75.6752 30.012C76.2192 30.364 76.8672 30.54 77.6192 30.54C78.2112 30.54 78.7232 30.428 79.1552 30.204C79.5872 29.996 79.9152 29.684 80.1392 29.268C80.3792 28.852 80.4992 28.364 80.4992 27.804V24.804L81.1952 25.668C80.7472 26.404 80.1712 26.956 79.4672 27.324C78.7632 27.676 77.9392 27.852 76.9952 27.852C75.7792 27.852 74.6912 27.58 73.7312 27.036C72.7712 26.476 72.0192 25.716 71.4752 24.756C70.9312 23.78 70.6592 22.676 70.6592 21.444C70.6592 20.212 70.9312 19.124 71.4752 18.18C72.0192 17.22 72.7632 16.468 73.7072 15.924C74.6512 15.38 75.7232 15.108 76.9232 15.108C77.8672 15.108 78.6912 15.3 79.3952 15.684C80.0992 16.052 80.6992 16.62 81.1952 17.388L80.7392 18.252V15.396H84.0992V27.804C84.0992 28.956 83.8192 29.98 83.2592 30.876C82.6992 31.788 81.9312 32.5 80.9552 33.012C79.9952 33.524 78.8832 33.78 77.6192 33.78ZM77.4992 24.588C78.1072 24.588 78.6352 24.46 79.0832 24.204C79.5312 23.948 79.8752 23.588 80.1152 23.124C80.3712 22.66 80.4992 22.116 80.4992 21.492C80.4992 20.868 80.3712 20.324 80.1152 19.86C79.8592 19.38 79.5072 19.012 79.0592 18.756C78.6112 18.484 78.0912 18.348 77.4992 18.348C76.8912 18.348 76.3472 18.484 75.8672 18.756C75.4032 19.012 75.0352 19.38 74.7632 19.86C74.5072 20.324 74.3792 20.868 74.3792 21.492C74.3792 22.1 74.5072 22.636 74.7632 23.1C75.0352 23.564 75.4032 23.932 75.8672 24.204C76.3472 24.46 76.8912 24.588 77.4992 24.588ZM93.2537 28.788C91.9577 28.788 90.7737 28.492 89.7017 27.9C88.6457 27.308 87.7977 26.5 87.1577 25.476C86.5337 24.436 86.2217 23.26 86.2217 21.948C86.2217 20.62 86.5337 19.444 87.1577 18.42C87.7977 17.396 88.6457 16.588 89.7017 15.996C90.7737 15.404 91.9577 15.108 93.2537 15.108C94.5497 15.108 95.7257 15.404 96.7817 15.996C97.8377 16.588 98.6777 17.396 99.3017 18.42C99.9417 19.444 100.262 20.62 100.262 21.948C100.262 23.26 99.9417 24.436 99.3017 25.476C98.6777 26.5 97.8377 27.308 96.7817 27.9C95.7257 28.492 94.5497 28.788 93.2537 28.788ZM93.2537 25.548C93.9097 25.548 94.4777 25.396 94.9577 25.092C95.4537 24.788 95.8377 24.364 96.1097 23.82C96.3977 23.276 96.5417 22.652 96.5417 21.948C96.5417 21.244 96.3977 20.628 96.1097 20.1C95.8377 19.556 95.4537 19.132 94.9577 18.828C94.4777 18.508 93.9097 18.348 93.2537 18.348C92.5977 18.348 92.0217 18.508 91.5257 18.828C91.0297 19.132 90.6377 19.556 90.3497 20.1C90.0777 20.628 89.9417 21.244 89.9417 21.948C89.9417 22.652 90.0777 23.276 90.3497 23.82C90.6377 24.364 91.0297 24.788 91.5257 25.092C92.0217 25.396 92.5977 25.548 93.2537 25.548ZM102.383 28.5V15.396H105.983V28.5H102.383ZM102.383 14.22V10.62H105.983V14.22H102.383ZM108.617 33.3V15.396H111.977V17.892L111.665 17.172C112.097 16.516 112.681 16.012 113.417 15.66C114.169 15.292 115.025 15.108 115.985 15.108C117.233 15.108 118.361 15.412 119.369 16.02C120.377 16.628 121.177 17.452 121.769 18.492C122.361 19.516 122.657 20.668 122.657 21.948C122.657 23.212 122.361 24.364 121.769 25.404C121.193 26.444 120.401 27.268 119.393 27.876C118.385 28.484 117.241 28.788 115.961 28.788C115.065 28.788 114.233 28.628 113.465 28.308C112.713 27.972 112.105 27.484 111.641 26.844L112.217 26.1V33.3H108.617ZM115.529 25.548C116.201 25.548 116.793 25.396 117.305 25.092C117.817 24.788 118.217 24.364 118.505 23.82C118.793 23.276 118.937 22.652 118.937 21.948C118.937 21.244 118.793 20.628 118.505 20.1C118.217 19.556 117.817 19.132 117.305 18.828C116.793 18.508 116.201 18.348 115.529 18.348C114.889 18.348 114.313 18.5 113.801 18.804C113.305 19.108 112.913 19.532 112.625 20.076C112.353 20.62 112.217 21.244 112.217 21.948C112.217 22.652 112.353 23.276 112.625 23.82C112.913 24.364 113.305 24.788 113.801 25.092C114.313 25.396 114.889 25.548 115.529 25.548ZM129.901 28.788C128.461 28.788 127.205 28.452 126.133 27.78C125.077 27.092 124.357 26.172 123.973 25.02L126.613 23.772C126.949 24.476 127.405 25.028 127.981 25.428C128.557 25.828 129.197 26.028 129.901 26.028C130.413 26.028 130.805 25.924 131.077 25.716C131.349 25.508 131.485 25.22 131.485 24.852C131.485 24.66 131.437 24.5 131.341 24.372C131.245 24.228 131.101 24.1 130.909 23.988C130.717 23.876 130.477 23.78 130.189 23.7L127.957 23.076C126.885 22.772 126.061 22.284 125.485 21.612C124.909 20.924 124.621 20.116 124.621 19.188C124.621 18.372 124.829 17.66 125.245 17.052C125.661 16.444 126.245 15.972 126.997 15.636C127.749 15.284 128.613 15.108 129.589 15.108C130.869 15.108 131.989 15.412 132.949 16.02C133.925 16.612 134.613 17.452 135.013 18.54L132.349 19.788C132.157 19.244 131.805 18.812 131.293 18.492C130.797 18.156 130.229 17.988 129.589 17.988C129.125 17.988 128.757 18.084 128.485 18.276C128.229 18.468 128.101 18.732 128.101 19.068C128.101 19.244 128.149 19.404 128.245 19.548C128.341 19.692 128.493 19.82 128.701 19.932C128.925 20.044 129.197 20.148 129.517 20.244L131.605 20.868C132.693 21.188 133.525 21.676 134.101 22.332C134.677 22.972 134.965 23.764 134.965 24.708C134.965 25.524 134.749 26.236 134.317 26.844C133.901 27.452 133.317 27.932 132.565 28.284C131.813 28.62 130.925 28.788 129.901 28.788ZM141.821 28.788C140.765 28.788 139.861 28.564 139.109 28.116C138.373 27.652 137.813 27.012 137.429 26.196C137.045 25.38 136.853 24.428 136.853 23.34V15.396H140.453V23.052C140.453 23.548 140.549 23.988 140.741 24.372C140.949 24.74 141.237 25.028 141.605 25.236C141.973 25.444 142.389 25.548 142.853 25.548C143.333 25.548 143.749 25.444 144.101 25.236C144.469 25.028 144.749 24.74 144.941 24.372C145.149 23.988 145.253 23.548 145.253 23.052V15.396H148.853V28.5H145.493V25.908L145.685 26.484C145.381 27.268 144.885 27.852 144.197 28.236C143.525 28.604 142.733 28.788 141.821 28.788ZM151.484 28.5V15.396H154.844V18.588L154.484 18.06C154.676 17.052 155.14 16.308 155.876 15.828C156.612 15.348 157.492 15.108 158.516 15.108C159.604 15.108 160.556 15.388 161.372 15.948C162.204 16.492 162.724 17.228 162.932 18.156L161.9 18.252C162.332 17.18 162.948 16.388 163.748 15.876C164.548 15.364 165.484 15.108 166.556 15.108C167.5 15.108 168.332 15.316 169.052 15.732C169.788 16.148 170.364 16.732 170.78 17.484C171.196 18.22 171.404 19.084 171.404 20.076V28.5H167.804V20.844C167.804 20.332 167.708 19.892 167.516 19.524C167.34 19.156 167.084 18.868 166.748 18.66C166.412 18.452 166.004 18.348 165.524 18.348C165.06 18.348 164.652 18.452 164.3 18.66C163.964 18.868 163.7 19.156 163.508 19.524C163.332 19.892 163.244 20.332 163.244 20.844V28.5H159.644V20.844C159.644 20.332 159.548 19.892 159.356 19.524C159.18 19.156 158.924 18.868 158.588 18.66C158.252 18.452 157.844 18.348 157.364 18.348C156.9 18.348 156.492 18.452 156.14 18.66C155.804 18.868 155.54 19.156 155.348 19.524C155.172 19.892 155.084 20.332 155.084 20.844V28.5H151.484Z" fill="#F2FD84"/>
</svg>
