<svg width="151" height="25" viewBox="0 0 151 25" fill="none" xmlns="http://www.w3.org/2000/svg">
<path d="M44.88 24.288V0.928001H49.424V24.288H44.88ZM48.784 14.56V10.72L58.128 10.688V14.528L48.784 14.56ZM48.784 4.768V0.928001H58.576V4.768H48.784ZM63.0475 24.288V6.912H67.4955V24.288H63.0475ZM60.6155 10.24V6.912H67.4955V10.24H60.6155ZM64.6795 4.832C63.8048 4.832 63.1542 4.608 62.7275 4.16C62.3222 3.69067 62.1195 3.11467 62.1195 2.432C62.1195 1.70667 62.3222 1.12 62.7275 0.672001C63.1542 0.224 63.8048 0 64.6795 0C65.5542 0 66.1942 0.224 66.5995 0.672001C67.0048 1.12 67.2075 1.70667 67.2075 2.432C67.2075 3.11467 67.0048 3.69067 66.5995 4.16C66.1942 4.608 65.5542 4.832 64.6795 4.832ZM80.1738 24.512C78.5738 24.512 77.2511 24.3093 76.2058 23.904C75.1818 23.4773 74.4138 22.7733 73.9018 21.792C73.3898 20.7893 73.1338 19.4453 73.1338 17.76L73.1658 2.016H77.3258L77.2938 18.048C77.2938 18.9013 77.5178 19.5627 77.9658 20.032C78.4351 20.48 79.0964 20.704 79.9498 20.704H82.6698V24.512H80.1738ZM70.3818 10.176V6.912H82.6698V10.176H70.3818ZM86.755 24.288V0.928001H91.299V24.288H86.755ZM90.659 14.56V10.72L100.003 10.688V14.528L90.659 14.56ZM90.659 4.768V0.928001H100.451V4.768H90.659ZM104.721 24.288V0.928001H109.169V24.288H104.721ZM102.545 4.256V0.928001H109.169V4.256H102.545ZM122.023 24.896C120.529 24.896 119.217 24.64 118.087 24.128C116.977 23.616 116.049 22.9333 115.303 22.08C114.577 21.2053 114.023 20.2347 113.639 19.168C113.276 18.1013 113.095 17.0133 113.095 15.904V15.296C113.095 14.144 113.276 13.0347 113.639 11.968C114.023 10.88 114.577 9.92 115.303 9.088C116.049 8.23467 116.967 7.56267 118.055 7.072C119.143 6.56 120.401 6.304 121.831 6.304C123.708 6.304 125.276 6.72 126.535 7.552C127.815 8.36267 128.775 9.44 129.415 10.784C130.055 12.1067 130.375 13.536 130.375 15.072V16.672H114.983V13.952H127.591L126.215 15.296C126.215 14.1867 126.055 13.2373 125.735 12.448C125.415 11.6587 124.924 11.0507 124.263 10.624C123.623 10.1973 122.812 9.984 121.831 9.984C120.849 9.984 120.017 10.208 119.335 10.656C118.652 11.104 118.129 11.7547 117.767 12.608C117.425 13.44 117.255 14.4427 117.255 15.616C117.255 16.704 117.425 17.6747 117.767 18.528C118.108 19.36 118.631 20.0213 119.335 20.512C120.039 20.9813 120.935 21.216 122.023 21.216C123.111 21.216 123.996 21.0027 124.679 20.576C125.361 20.128 125.799 19.584 125.991 18.944H130.087C129.831 20.1387 129.34 21.184 128.615 22.08C127.889 22.976 126.961 23.6693 125.831 24.16C124.721 24.6507 123.452 24.896 122.023 24.896ZM132.013 24.288L137.677 15.008L137.581 15.744L132.237 6.912H137.069L140.557 13.024H141.037L144.333 6.912H148.877L143.821 15.712L143.917 15.072L149.901 24.288H145.069L140.941 17.728H140.461L136.557 24.288H132.013Z" fill="white"/>
<path d="M0 14.5459V10.0278H2.21236L2.21202 14.5459H0ZM4.53921 19.6306C4.20671 19.6306 3.89413 19.4933 3.65902 19.244C3.42391 18.9948 3.29449 18.6634 3.2945 18.311L3.29475 15.1244C3.29475 15.1229 3.29496 15.1214 3.29496 15.1198C3.29496 15.1183 3.29475 15.1168 3.29475 15.1153L3.29542 6.26388C3.29551 5.53652 3.8539 4.9447 4.54013 4.9447H6.63375L6.63273 19.6306L4.53921 19.6306ZM11.0274 23.9017C10.7923 24.1508 10.4798 24.288 10.1474 24.288H10.1472L8.95979 24.2878C8.27357 24.2877 7.71529 23.6958 7.71529 22.9684L7.71658 4.37484C7.7166 4.37347 7.71677 4.37218 7.71677 4.37081C7.71677 4.36944 7.71658 4.36815 7.71658 4.36678L7.71677 1.60742C7.71677 1.25497 7.84628 0.923624 8.08142 0.674451C8.31653 0.425277 8.62902 0.288042 8.96148 0.288042H8.96165L10.1488 0.288264H10.1488C10.8351 0.288324 11.3933 0.880282 11.3933 1.60772L11.3929 9.45134C11.3929 9.4524 11.3927 9.45349 11.3927 9.45462C11.3927 9.45575 11.3928 9.45681 11.3929 9.45794L11.3921 22.9687C11.3921 23.3211 11.2626 23.6525 11.0274 23.9017ZM12.4753 14.5468L12.4756 10.0286L25.5246 10.03L25.5249 14.5482L12.4753 14.5468ZM29.0403 24.2878L27.853 24.2879C27.1667 24.2879 26.6083 23.6961 26.6082 22.9685L26.6068 1.6076C26.6068 0.880102 27.1651 0.288223 27.8515 0.288143L29.0387 0.288002C29.3712 0.288002 29.6837 0.425156 29.9188 0.67435C30.1539 0.923604 30.2834 1.25487 30.2835 1.6074L30.2847 20.2043C30.2847 20.2044 30.2847 20.2045 30.2847 20.2047C30.2847 20.2048 30.2847 20.2049 30.2847 20.205L30.2849 22.9683C30.2849 23.6958 29.7266 24.2877 29.0403 24.2878ZM33.461 19.6305L31.3674 19.6307L31.3665 4.9448L33.46 4.94462C33.7925 4.94462 34.1051 5.08177 34.3402 5.33097C34.5753 5.58014 34.7048 5.91149 34.7048 6.26394L34.705 9.45603C34.705 9.45635 34.705 9.45665 34.705 9.45697C34.705 9.4573 34.705 9.45762 34.705 9.45792L34.7056 18.311C34.7056 19.0385 34.1474 19.6304 33.461 19.6305ZM38 14.549H35.7882L35.7878 10.0309H38V14.549Z" fill="#F2FD84"/>
</svg>
