<svg width="84" height="84" viewBox="0 0 84 84" fill="none" xmlns="http://www.w3.org/2000/svg">
<path d="M42 0C18.8044 0 0 18.804 0 42C0 65.196 18.8044 84 42 84C65.1956 84 84 65.196 84 42C84 18.804 65.1956 0 42 0ZM56.5163 44.2263L35.5163 57.3513C35.0913 57.6166 34.6082 57.75 34.125 57.75C33.6873 57.75 33.2489 57.6411 32.8522 57.4206C32.0178 56.9579 31.5 56.0798 31.5 55.125V28.875C31.5 27.9202 32.0178 27.0421 32.8522 26.5794C33.6866 26.1142 34.7069 26.1424 35.5163 26.6487L56.5163 39.7737C57.2834 40.2544 57.75 41.0952 57.75 42C57.75 42.9048 57.2834 43.7458 56.5163 44.2263Z" fill="#F2FD84"/>
</svg>
