<svg width="68" height="68" viewBox="0 0 68 68" fill="none" xmlns="http://www.w3.org/2000/svg">
<rect width="68" height="68" fill="#F2FD84"/>
<g clip-path="url(#clip0_2043_256)">
<path d="M22.3214 39.555C22.1363 39.555 21.9493 39.5256 21.7623 39.467C20.7979 39.159 20.2663 38.1268 20.5761 37.1625L26.9744 17.1645C27.2824 16.2001 28.3109 15.6685 29.2789 15.9765C30.2433 16.2845 30.7749 17.3166 30.4651 18.281L24.0668 38.279C23.8174 39.0581 23.0988 39.555 22.3214 39.555Z" fill="#222222"/>
<path d="M45.6783 39.555C44.9009 39.555 44.1823 39.0581 43.9329 38.279L37.5346 18.281C37.2248 17.3166 37.7564 16.2845 38.7208 15.9765C39.6906 15.6685 40.7173 16.2001 41.0253 17.1645L47.4236 37.1625C47.7334 38.1268 47.2018 39.159 46.2374 39.467C46.0504 39.5275 45.8634 39.555 45.6783 39.555Z" fill="#222222"/>
<path d="M33.9998 26.6667C29.9555 26.6667 26.6665 23.3777 26.6665 19.3333C26.6665 15.289 29.9555 12 33.9998 12C38.0442 12 41.3332 15.289 41.3332 19.3333C41.3332 23.3777 38.0442 26.6667 33.9998 26.6667ZM33.9998 15.6667C31.9777 15.6667 30.3332 17.3112 30.3332 19.3333C30.3332 21.3555 31.9777 23 33.9998 23C36.022 23 37.6665 21.3555 37.6665 19.3333C37.6665 17.3112 36.022 15.6667 33.9998 15.6667Z" fill="#222222"/>
<path d="M26.1114 42.943L26.6577 40.7943C27.1142 39.0857 26.0967 37.3238 24.3899 36.8655L20.8479 35.9158C20.0192 35.6977 19.1575 35.8095 18.4114 36.2367C17.6707 36.6638 17.1409 37.3568 16.9154 38.202L16.457 40.0023L26.1114 42.943Z" fill="#222222"/>
<path d="M15.5513 43.5626L13.9875 49.719C13.3165 52.3773 14.9225 55.1181 17.5698 55.8276C18.0043 55.9431 18.448 56 18.8843 56C19.768 56 20.6406 55.7653 21.4253 55.307C22.5986 54.6195 23.4291 53.5158 23.761 52.1976L25.2075 46.5015L15.5513 43.5626Z" fill="#222222"/>
<path d="M41.8358 42.7285L51.5011 39.8282L51.085 38.1855C50.8631 37.3568 50.3333 36.6657 49.5926 36.2367C48.8483 35.8095 47.9885 35.6977 47.1561 35.9158L43.6141 36.8655C41.9055 37.3238 40.8898 39.0857 41.3426 40.7778L41.8358 42.7285Z" fill="#222222"/>
<path d="M52.4031 43.3867L42.7378 46.2871L44.2375 52.1977C44.5711 53.5159 45.4016 54.6196 46.5731 55.3071C47.3596 55.7672 48.2323 56.0001 49.116 56.0001C49.5523 56.0001 49.9941 55.9432 50.4305 55.8259C53.0778 55.1164 54.6838 52.3756 54.011 49.7154L52.4031 43.3867Z" fill="#222222"/>
</g>
<defs>
<clipPath id="clip0_2043_256">
<rect width="44" height="44" fill="white" transform="translate(12 12)"/>
</clipPath>
</defs>
</svg>
