<svg width="68" height="68" viewBox="0 0 68 68" fill="none" xmlns="http://www.w3.org/2000/svg">
<rect width="68" height="68" fill="#F2FD84"/>
<g clip-path="url(#clip0_2043_411)">
<path d="M24.3748 45.4583C23.9055 45.4583 23.4361 45.2786 23.0786 44.9211C22.3618 44.2043 22.3618 43.0456 23.0786 42.3288L25.1521 40.2553C25.4565 39.9509 25.6013 39.5146 25.5408 39.0874L25.4931 38.7519C25.2621 37.1313 25.8341 35.4941 27.0203 34.3721C28.2065 33.2483 29.8711 32.7716 31.4735 33.0906C32.1243 33.2226 32.5588 32.8706 32.7146 32.7129C32.8705 32.5571 33.2206 32.1226 33.0923 31.4699C32.7715 29.8676 33.25 28.2029 34.3738 27.0168C35.4958 25.8306 37.133 25.2604 38.7481 25.4896L39.0928 25.5391C39.5108 25.5959 39.949 25.4529 40.2551 25.1504L42.6293 22.7763C43.3461 22.0594 44.5048 22.0594 45.2216 22.7763C45.9385 23.4931 45.9385 24.6518 45.2216 25.3686L42.8475 27.7428C41.7346 28.8593 40.1396 29.3946 38.5703 29.1691L38.2256 29.1196C37.7801 29.0554 37.3475 29.2076 37.0376 29.5376C36.726 29.8658 36.5995 30.3094 36.6875 30.7531C37.0193 32.4104 36.5023 34.1136 35.3088 35.3071C34.1135 36.5006 32.4121 37.0158 30.7548 36.6858C30.3075 36.5978 29.8675 36.7243 29.5393 37.0359C29.2111 37.3458 29.059 37.7821 29.1231 38.2294L29.1708 38.5649C29.3945 40.1324 28.861 41.7311 27.7445 42.8458L25.671 44.9193C25.3135 45.2786 24.8441 45.4583 24.3748 45.4583Z" fill="#222222"/>
<path d="M18.116 56C17.258 56 16.4532 55.6663 15.8463 55.0595L12.9405 52.1537C12.3337 51.5468 12 50.742 12 49.884C12 49.0278 12.3337 48.2212 12.9405 47.6162L19.0565 41.5002C20.3068 40.2517 22.3418 40.2498 23.5922 41.5002L26.4998 44.4078C27.7502 45.66 27.7502 47.695 26.4998 48.9453L20.3838 55.0613C19.7788 55.6663 18.9722 56 18.116 56Z" fill="#222222"/>
<path d="M46.6758 27.4074C45.8544 27.4074 45.0331 27.0957 44.4079 26.4705L41.5003 23.5629C40.2499 22.3125 40.2499 20.2775 41.5003 19.0272L47.6163 12.9112C48.8299 11.6994 50.9438 11.6994 52.1538 12.9112L55.0596 15.817C55.6664 16.422 56.0001 17.2269 56.0001 18.0849C56.0001 18.941 55.6664 19.7477 55.0596 20.3527L48.9436 26.4687C48.3202 27.0939 47.4971 27.4074 46.6758 27.4074Z" fill="#222222"/>
</g>
<defs>
<clipPath id="clip0_2043_411">
<rect width="44" height="44" fill="white" transform="translate(12 12)"/>
</clipPath>
</defs>
</svg>
