<svg width="40" height="40" viewBox="0 0 40 40" fill="none" xmlns="http://www.w3.org/2000/svg">
<path d="M20.0003 1.66663C16.3743 1.66663 12.8298 2.74186 9.81488 4.75635C6.79998 6.77084 4.45015 9.63412 3.06254 12.9841C1.67494 16.3341 1.31187 20.0203 2.01927 23.5766C2.72667 27.1329 4.47275 30.3996 7.03671 32.9636C9.60067 35.5275 12.8674 37.2736 16.4237 37.981C19.98 38.6884 23.6662 38.3254 27.0162 36.9378C30.3662 35.5501 33.2295 33.2003 35.2439 30.1854C37.2584 27.1705 38.3337 23.626 38.3337 20C38.3279 15.1394 36.3946 10.4796 32.9576 7.04267C29.5207 3.60574 24.8609 1.67236 20.0003 1.66663ZM26.1787 26.1783C25.8661 26.4907 25.4423 26.6663 25.0003 26.6663C24.5584 26.6663 24.1345 26.4907 23.822 26.1783L18.822 21.1783C18.5094 20.8658 18.3338 20.442 18.3337 20V9.99996C18.3337 9.55793 18.5093 9.13401 18.8218 8.82145C19.1344 8.50889 19.5583 8.33329 20.0003 8.33329C20.4424 8.33329 20.8663 8.50889 21.1788 8.82145C21.4914 9.13401 21.667 9.55793 21.667 9.99996V19.31L26.1787 23.8216C26.4911 24.1342 26.6666 24.558 26.6666 25C26.6666 25.4419 26.4911 25.8657 26.1787 26.1783Z" fill="#F2FD84"/>
</svg>
