<svg width="40" height="40" viewBox="0 0 40 40" fill="none" xmlns="http://www.w3.org/2000/svg">
<path d="M28.5083 10.3872C28.2361 9.93711 27.6974 9.72318 27.1905 9.86448C26.6839 10.0058 26.3333 10.4675 26.3333 10.9933C26.3333 12.4237 25.1697 13.587 23.7396 13.587C22.3095 13.587 21.1459 12.4237 21.1459 10.9933V1.17187C21.1459 0.697928 20.8603 0.270682 20.4223 0.0894082C19.9844 -0.0921711 19.4806 0.00792633 19.1455 0.343314C19.0137 0.474845 15.889 3.61815 12.7231 8.36698C10.856 11.1673 9.36615 13.945 8.29498 16.6229C6.93817 20.0155 6.25 23.2632 6.25 26.2762C6.25 33.8433 12.4066 39.9999 19.974 39.9999C27.5412 39.9999 33.6978 33.8433 33.6978 26.2762C33.6981 21.4322 31.9519 16.0864 28.5083 10.3872ZM27.7935 25.9713C27.7935 26.6186 27.269 27.1432 26.6217 27.1432C25.9747 27.1432 25.4498 26.6186 25.4498 25.9713V23.7799L19.6148 29.6151C19.3948 29.8349 19.097 29.9581 18.786 29.9581C18.4753 29.9581 18.1772 29.8349 17.9574 29.6151L15.2359 26.8933L13.4018 28.7274C12.944 29.1851 12.2021 29.1851 11.7444 28.7274C11.2866 28.2696 11.2866 27.5277 11.7444 27.07L14.4073 24.4073C14.8651 23.9498 15.607 23.9498 16.0647 24.4076L18.786 27.1292L23.7927 22.1225H21.6009C20.9537 22.1225 20.4291 21.5979 20.4291 20.9506C20.4291 20.3033 20.9537 19.7787 21.6009 19.7787H26.622C27.269 19.7787 27.7939 20.3036 27.7939 20.9506V25.9713H27.7935Z" fill="#F2FD84"/>
</svg>
