<svg width="40" height="40" viewBox="0 0 40 40" fill="none" xmlns="http://www.w3.org/2000/svg">
<g clip-path="url(#clip0_8_571)">
<path d="M16.7235 0.0684814L13.1379 0.0697614C9.8707 0.0697614 7.21213 2.728 7.21213 5.99552C7.21213 6.41824 7.26077 6.84768 7.35677 7.27616C4.12669 8.29408 1.89629 11.3146 1.89629 14.7264C1.89629 16.001 2.21181 17.256 2.80349 18.3757C1.49181 19.6755 0.677734 21.4771 0.677734 23.4656C0.677734 26.711 2.84541 29.4582 5.80893 30.3389C5.70461 30.7443 5.64957 31.161 5.64957 31.5834C5.64957 34.336 7.88894 36.575 10.6413 36.575C10.9539 36.575 11.2691 36.5437 11.584 36.4826C11.7011 38.4419 13.3315 40 15.32 40C17.3725 40 19.0627 38.3398 19.0627 36.2925C19.0627 36.289 19.0627 36.2854 19.0627 36.2822V2.40768C19.0624 1.11776 18.0137 0.0684814 16.7235 0.0684814Z" fill="#F2FD84"/>
<path d="M39.3224 23.3971C39.3224 21.409 38.5087 19.6074 37.1964 18.3069C37.7887 17.1878 38.1045 15.9325 38.1045 14.6582C38.1045 11.2464 35.8735 8.2256 32.6434 7.208C32.7397 6.77952 32.788 6.34976 32.788 5.92736C32.788 2.65984 30.1295 0.00128 26.8616 0.00128L23.276 0C21.9861 0 20.9372 1.04928 20.9372 2.33984V29.5405C20.9372 29.5706 20.918 29.6006 20.918 29.6339C20.918 29.7552 20.9372 29.8746 20.9372 29.992V36.1882V36.2138V36.2499H20.9384C20.9804 38.4374 22.6412 39.9238 24.6792 39.9238C26.6677 39.9238 28.2991 38.3693 28.4162 36.4102C28.7308 36.4717 29.0466 36.505 29.3586 36.505C32.1112 36.505 34.3503 34.2666 34.3503 31.5146C34.3503 31.0918 34.2952 30.6755 34.1916 30.2707C37.1548 29.3898 39.3224 26.6426 39.3224 23.3971Z" fill="#F2FD84"/>
</g>
<defs>
<clipPath id="clip0_8_571">
<rect width="40" height="40" fill="white"/>
</clipPath>
</defs>
</svg>
