<svg width="167" height="37" viewBox="0 0 167 37" fill="none" xmlns="http://www.w3.org/2000/svg">
<path d="M25.8814 11.0872L17.16 5.99575C16.7357 5.76003 16.17 5.76003 15.7457 5.99575L7.02428 11.0872C6.59999 11.3229 6.03428 11.3229 5.60999 11.0872L3.62999 9.95575C2.68714 9.39003 2.68714 8.07003 3.62999 7.50432L15.7457 0.432889C16.17 0.197175 16.7357 0.197175 17.16 0.432889L29.2757 7.50432C30.2186 8.07003 30.2186 9.39003 29.2757 9.95575L27.2957 11.0872C26.8714 11.37 26.3057 11.37 25.8814 11.0872Z" fill="#F2FD84"/>
<path d="M10.5601 24.6173L15.6987 21.6001C16.123 21.3644 16.6887 21.3644 17.113 21.6001L22.2987 24.6173C22.7701 24.9001 22.7701 25.6073 22.2987 25.8901L17.1601 28.9073C16.7358 29.143 16.1701 29.143 15.7458 28.9073L10.5601 25.8901C10.0887 25.6073 10.0887 24.9001 10.5601 24.6173Z" fill="#F2FD84"/>
<path d="M20.1771 11.4643L24.3257 13.8686C24.7499 14.1043 25.0328 14.5758 25.0328 15.0943V21.0815C25.0328 21.6943 24.3728 22.0715 23.8542 21.7415L18.7628 18.7715C18.3385 18.5358 18.0557 18.0643 18.0557 17.5458V12.69C18.0557 11.6058 19.2342 10.9458 20.1771 11.4643Z" fill="#F2FD84"/>
<path d="M14.143 18.8187L8.95733 21.8358C8.4859 22.1187 7.87305 21.7887 7.87305 21.223V15.1415C7.87305 14.623 8.1559 14.1515 8.58019 13.9158L12.7288 11.5115C13.6716 10.9458 14.8502 11.653 14.8502 12.7373V17.6401C14.8502 18.1115 14.6145 18.5358 14.143 18.8187Z" fill="#F2FD84"/>
<path d="M32.2457 29.4257L20.1771 36.4971C19.2342 37.0628 18.0557 36.3557 18.0557 35.2714V32.9614C18.0557 32.4428 18.3385 31.9714 18.7628 31.7357L27.5314 26.5971C27.9557 26.3614 28.2385 25.89 28.2385 25.3714V15.1414C28.2385 14.6228 28.5214 14.1514 28.9457 13.9157L30.8785 12.7842C31.8214 12.2185 32.9999 12.9257 32.9999 14.01V28.2C32.9528 28.6714 32.67 29.1428 32.2457 29.4257Z" fill="#F2FD84"/>
<path d="M4.71429 15.1414V25.4185C4.71429 25.9371 4.99714 26.4085 5.42143 26.6442L14.19 31.7828C14.6143 32.0185 14.8971 32.49 14.8971 33.0085V35.3185C14.8971 36.4028 13.7186 37.11 12.7757 36.5442L0.707143 29.4728C0.282857 29.2371 0 28.7657 0 28.2471V14.01C0 12.9257 1.17857 12.2185 2.12143 12.7842L4.05429 13.9157C4.43143 14.1514 4.71429 14.6228 4.71429 15.1414Z" fill="#F2FD84"/>
<path d="M46.584 28.5V10.332H49.296V28.5H46.584ZM58.7308 28.788C57.4828 28.788 56.3388 28.492 55.2988 27.9C54.2748 27.308 53.4588 26.5 52.8508 25.476C52.2428 24.452 51.9388 23.292 51.9388 21.996C51.9388 20.684 52.2428 19.524 52.8508 18.516C53.4588 17.492 54.2748 16.692 55.2988 16.116C56.3228 15.524 57.4668 15.228 58.7308 15.228C60.0108 15.228 61.1548 15.524 62.1628 16.116C63.1868 16.692 63.9948 17.492 64.5868 18.516C65.1948 19.524 65.4988 20.684 65.4988 21.996C65.4988 23.308 65.1948 24.476 64.5868 25.5C63.9788 26.524 63.1628 27.332 62.1388 27.924C61.1148 28.5 59.9788 28.788 58.7308 28.788ZM58.7308 26.268C59.4988 26.268 60.1788 26.084 60.7708 25.716C61.3628 25.348 61.8268 24.844 62.1628 24.204C62.5148 23.548 62.6908 22.812 62.6908 21.996C62.6908 21.18 62.5148 20.452 62.1628 19.812C61.8268 19.172 61.3628 18.668 60.7708 18.3C60.1788 17.932 59.4988 17.748 58.7308 17.748C57.9788 17.748 57.2988 17.932 56.6908 18.3C56.0988 18.668 55.6268 19.172 55.2748 19.812C54.9388 20.452 54.7708 21.18 54.7708 21.996C54.7708 22.812 54.9388 23.548 55.2748 24.204C55.6268 24.844 56.0988 25.348 56.6908 25.716C57.2988 26.084 57.9788 26.268 58.7308 26.268ZM74.4105 33.78C73.4665 33.78 72.5945 33.628 71.7945 33.324C70.9945 33.02 70.3065 32.596 69.7305 32.052C69.1545 31.524 68.7225 30.9 68.4345 30.18L70.9305 29.148C71.1545 29.756 71.5625 30.26 72.1545 30.66C72.7625 31.06 73.5065 31.26 74.3865 31.26C75.0745 31.26 75.6905 31.124 76.2345 30.852C76.7785 30.596 77.2105 30.212 77.5305 29.7C77.8505 29.204 78.0105 28.604 78.0105 27.9V24.972L78.4905 25.524C78.0425 26.356 77.4185 26.988 76.6185 27.42C75.8345 27.852 74.9465 28.068 73.9545 28.068C72.7545 28.068 71.6745 27.788 70.7145 27.228C69.7545 26.668 68.9945 25.9 68.4345 24.924C67.8905 23.948 67.6185 22.852 67.6185 21.636C67.6185 20.404 67.8905 19.308 68.4345 18.348C68.9945 17.388 69.7465 16.628 70.6905 16.068C71.6345 15.508 72.7145 15.228 73.9305 15.228C74.9225 15.228 75.8025 15.444 76.5705 15.876C77.3545 16.292 77.9945 16.9 78.4905 17.7L78.1305 18.372V15.516H80.6985V27.9C80.6985 29.02 80.4265 30.02 79.8825 30.9C79.3545 31.796 78.6185 32.5 77.6745 33.012C76.7305 33.524 75.6425 33.78 74.4105 33.78ZM74.2665 25.548C74.9865 25.548 75.6265 25.38 76.1865 25.044C76.7465 24.692 77.1865 24.228 77.5065 23.652C77.8425 23.06 78.0105 22.396 78.0105 21.66C78.0105 20.924 77.8425 20.26 77.5065 19.668C77.1705 19.076 76.7225 18.612 76.1625 18.276C75.6025 17.924 74.9705 17.748 74.2665 17.748C73.5305 17.748 72.8745 17.924 72.2985 18.276C71.7225 18.612 71.2665 19.076 70.9305 19.668C70.6105 20.244 70.4505 20.908 70.4505 21.66C70.4505 22.38 70.6105 23.036 70.9305 23.628C71.2665 24.22 71.7225 24.692 72.2985 25.044C72.8745 25.38 73.5305 25.548 74.2665 25.548ZM90.1371 28.788C88.8891 28.788 87.7451 28.492 86.7051 27.9C85.6811 27.308 84.8651 26.5 84.2571 25.476C83.6491 24.452 83.3451 23.292 83.3451 21.996C83.3451 20.684 83.6491 19.524 84.2571 18.516C84.8651 17.492 85.6811 16.692 86.7051 16.116C87.7291 15.524 88.8731 15.228 90.1371 15.228C91.4171 15.228 92.5611 15.524 93.5691 16.116C94.5931 16.692 95.4011 17.492 95.9931 18.516C96.6011 19.524 96.9051 20.684 96.9051 21.996C96.9051 23.308 96.6011 24.476 95.9931 25.5C95.3851 26.524 94.5691 27.332 93.5451 27.924C92.5211 28.5 91.3851 28.788 90.1371 28.788ZM90.1371 26.268C90.9051 26.268 91.5851 26.084 92.1771 25.716C92.7691 25.348 93.2331 24.844 93.5691 24.204C93.9211 23.548 94.0971 22.812 94.0971 21.996C94.0971 21.18 93.9211 20.452 93.5691 19.812C93.2331 19.172 92.7691 18.668 92.1771 18.3C91.5851 17.932 90.9051 17.748 90.1371 17.748C89.3851 17.748 88.7051 17.932 88.0971 18.3C87.5051 18.668 87.0331 19.172 86.6811 19.812C86.3451 20.452 86.1771 21.18 86.1771 21.996C86.1771 22.812 86.3451 23.548 86.6811 24.204C87.0331 24.844 87.5051 25.348 88.0971 25.716C88.7051 26.084 89.3851 26.268 90.1371 26.268ZM99.5527 28.5V15.516H102.265V28.5H99.5527ZM99.5527 13.74V10.62H102.265V13.74H99.5527ZM105.436 33.3V15.516H108.028V18.204L107.716 17.58C108.196 16.844 108.836 16.268 109.636 15.852C110.436 15.436 111.348 15.228 112.372 15.228C113.604 15.228 114.708 15.524 115.684 16.116C116.676 16.708 117.452 17.516 118.012 18.54C118.588 19.564 118.876 20.716 118.876 21.996C118.876 23.276 118.588 24.428 118.012 25.452C117.452 26.476 116.684 27.292 115.708 27.9C114.732 28.492 113.62 28.788 112.372 28.788C111.364 28.788 110.444 28.58 109.612 28.164C108.796 27.748 108.164 27.148 107.716 26.364L108.148 25.86V33.3H105.436ZM112.108 26.268C112.876 26.268 113.556 26.084 114.148 25.716C114.74 25.348 115.204 24.844 115.54 24.204C115.892 23.548 116.068 22.812 116.068 21.996C116.068 21.18 115.892 20.452 115.54 19.812C115.204 19.172 114.74 18.668 114.148 18.3C113.556 17.932 112.876 17.748 112.108 17.748C111.356 17.748 110.676 17.932 110.068 18.3C109.476 18.668 109.004 19.172 108.652 19.812C108.316 20.452 108.148 21.18 108.148 21.996C108.148 22.812 108.316 23.548 108.652 24.204C109.004 24.844 109.476 25.348 110.068 25.716C110.676 26.084 111.356 26.268 112.108 26.268ZM126.314 28.788C124.986 28.788 123.818 28.46 122.81 27.804C121.818 27.148 121.122 26.268 120.722 25.164L122.81 24.18C123.162 24.916 123.642 25.5 124.25 25.932C124.874 26.364 125.562 26.58 126.314 26.58C126.954 26.58 127.474 26.436 127.874 26.148C128.274 25.86 128.474 25.468 128.474 24.972C128.474 24.652 128.386 24.396 128.21 24.204C128.034 23.996 127.81 23.828 127.538 23.7C127.282 23.572 127.018 23.476 126.746 23.412L124.706 22.836C123.586 22.516 122.746 22.036 122.186 21.396C121.642 20.74 121.37 19.98 121.37 19.116C121.37 18.332 121.57 17.652 121.97 17.076C122.37 16.484 122.922 16.028 123.626 15.708C124.33 15.388 125.122 15.228 126.002 15.228C127.186 15.228 128.242 15.524 129.17 16.116C130.098 16.692 130.754 17.5 131.138 18.54L129.05 19.524C128.794 18.9 128.386 18.404 127.826 18.036C127.282 17.668 126.666 17.484 125.978 17.484C125.386 17.484 124.914 17.628 124.562 17.916C124.21 18.188 124.034 18.548 124.034 18.996C124.034 19.3 124.114 19.556 124.274 19.764C124.434 19.956 124.642 20.116 124.898 20.244C125.154 20.356 125.418 20.452 125.69 20.532L127.802 21.156C128.874 21.46 129.698 21.94 130.274 22.596C130.85 23.236 131.138 24.004 131.138 24.9C131.138 25.668 130.93 26.348 130.514 26.94C130.114 27.516 129.554 27.972 128.834 28.308C128.114 28.628 127.274 28.788 126.314 28.788ZM138.427 28.788C137.451 28.788 136.595 28.572 135.859 28.14C135.123 27.692 134.547 27.076 134.131 26.292C133.731 25.492 133.531 24.572 133.531 23.532V15.516H136.243V23.292C136.243 23.884 136.363 24.404 136.603 24.852C136.843 25.3 137.179 25.652 137.611 25.908C138.043 26.148 138.539 26.268 139.099 26.268C139.675 26.268 140.179 26.14 140.611 25.884C141.043 25.628 141.379 25.268 141.619 24.804C141.875 24.34 142.003 23.796 142.003 23.172V15.516H144.691V28.5H142.123V25.956L142.411 26.292C142.107 27.092 141.603 27.708 140.899 28.14C140.195 28.572 139.371 28.788 138.427 28.788ZM147.857 28.5V15.516H150.449V18.324L150.113 17.892C150.385 17.012 150.881 16.348 151.601 15.9C152.321 15.452 153.145 15.228 154.073 15.228C155.113 15.228 156.033 15.508 156.833 16.068C157.649 16.612 158.193 17.34 158.465 18.252L157.697 18.324C158.081 17.284 158.665 16.508 159.449 15.996C160.249 15.484 161.161 15.228 162.185 15.228C163.081 15.228 163.889 15.436 164.609 15.852C165.345 16.268 165.929 16.844 166.361 17.58C166.793 18.316 167.009 19.156 167.009 20.1V28.5H164.297V20.844C164.297 20.188 164.177 19.636 163.937 19.188C163.713 18.724 163.393 18.372 162.977 18.132C162.577 17.876 162.105 17.748 161.561 17.748C161.017 17.748 160.537 17.876 160.121 18.132C159.705 18.372 159.377 18.724 159.137 19.188C158.897 19.652 158.777 20.204 158.777 20.844V28.5H156.089V20.844C156.089 20.188 155.969 19.636 155.729 19.188C155.505 18.724 155.185 18.372 154.769 18.132C154.369 17.876 153.889 17.748 153.329 17.748C152.785 17.748 152.305 17.876 151.889 18.132C151.473 18.372 151.145 18.724 150.905 19.188C150.681 19.652 150.569 20.204 150.569 20.844V28.5H147.857Z" fill="#F2FD84"/>
</svg>
