<svg width="169" height="37" viewBox="0 0 169 37" fill="none" xmlns="http://www.w3.org/2000/svg">
<path d="M16.4781 0.50025C16.393 0.504785 16.3098 0.52703 16.2341 0.567165C16.2341 0.567165 9.23578 4.12107 0.508734 5.30572C0.21553 5.34699 -0.00215851 5.60316 1.61496e-05 5.90449V18.4986C1.61496e-05 26.2138 4.14896 30.7903 8.23965 33.3353C12.3303 35.8804 16.4125 36.4932 16.4125 36.4932C16.4705 36.5023 16.5295 36.5023 16.5875 36.4932C16.5875 36.4932 20.6697 35.8804 24.7603 33.3353C28.851 30.7903 33 26.2138 33 18.4986V5.90449C33.0024 5.60316 32.7845 5.34694 32.4913 5.30572C23.7642 4.12107 16.7659 0.567165 16.7659 0.567165C16.6771 0.520455 16.5781 0.497302 16.4781 0.50025ZM16.5 7.70191C22.3511 7.70191 27.1048 12.5415 27.1048 18.4984C27.1048 24.4554 22.3511 29.3009 16.5 29.3009C10.6488 29.3009 5.89513 24.4554 5.89513 18.4984C5.89513 12.5415 10.6488 7.70191 16.5 7.70191ZM14.1417 13.1002V16.1034H11.1975C10.8721 16.1022 10.6073 16.3697 10.606 16.701V20.3018C10.6071 20.6331 10.8721 20.9007 11.1975 20.8994H14.1417V23.9026C14.1428 24.2344 14.4085 24.5021 14.7344 24.5002H18.2655C18.5909 24.5014 18.8558 24.2339 18.8571 23.9026V20.8994H21.8024C22.1278 20.9006 22.3927 20.6331 22.394 20.3018V16.701C22.3928 16.3697 22.1278 16.1021 21.8024 16.1034H18.8571V13.1002C18.8559 12.7689 18.5909 12.5013 18.2655 12.5026H14.7039C14.3715 12.5328 14.1414 12.7914 14.1417 13.1002Z" fill="#F2FD84"/>
<path d="M46.32 28.5V10.332H49.92V28.5H46.32ZM59.0584 28.788C57.7624 28.788 56.5784 28.492 55.5064 27.9C54.4504 27.308 53.6024 26.5 52.9624 25.476C52.3384 24.436 52.0264 23.26 52.0264 21.948C52.0264 20.62 52.3384 19.444 52.9624 18.42C53.6024 17.396 54.4504 16.588 55.5064 15.996C56.5784 15.404 57.7624 15.108 59.0584 15.108C60.3544 15.108 61.5304 15.404 62.5864 15.996C63.6424 16.588 64.4824 17.396 65.1064 18.42C65.7464 19.444 66.0664 20.62 66.0664 21.948C66.0664 23.26 65.7464 24.436 65.1064 25.476C64.4824 26.5 63.6424 27.308 62.5864 27.9C61.5304 28.492 60.3544 28.788 59.0584 28.788ZM59.0584 25.548C59.7144 25.548 60.2824 25.396 60.7624 25.092C61.2584 24.788 61.6424 24.364 61.9144 23.82C62.2024 23.276 62.3464 22.652 62.3464 21.948C62.3464 21.244 62.2024 20.628 61.9144 20.1C61.6424 19.556 61.2584 19.132 60.7624 18.828C60.2824 18.508 59.7144 18.348 59.0584 18.348C58.4024 18.348 57.8264 18.508 57.3304 18.828C56.8344 19.132 56.4424 19.556 56.1544 20.1C55.8824 20.628 55.7464 21.244 55.7464 21.948C55.7464 22.652 55.8824 23.276 56.1544 23.82C56.4424 24.364 56.8344 24.788 57.3304 25.092C57.8264 25.396 58.4024 25.548 59.0584 25.548ZM74.6192 33.78C73.6112 33.78 72.6752 33.612 71.8112 33.276C70.9472 32.94 70.2032 32.468 69.5792 31.86C68.9712 31.268 68.5312 30.564 68.2592 29.748L71.5952 28.572C71.7712 29.18 72.1312 29.66 72.6752 30.012C73.2192 30.364 73.8672 30.54 74.6192 30.54C75.2112 30.54 75.7232 30.428 76.1552 30.204C76.5872 29.996 76.9152 29.684 77.1392 29.268C77.3792 28.852 77.4992 28.364 77.4992 27.804V24.804L78.1952 25.668C77.7472 26.404 77.1712 26.956 76.4672 27.324C75.7632 27.676 74.9392 27.852 73.9952 27.852C72.7792 27.852 71.6912 27.58 70.7312 27.036C69.7712 26.476 69.0192 25.716 68.4752 24.756C67.9312 23.78 67.6592 22.676 67.6592 21.444C67.6592 20.212 67.9312 19.124 68.4752 18.18C69.0192 17.22 69.7632 16.468 70.7072 15.924C71.6512 15.38 72.7232 15.108 73.9232 15.108C74.8672 15.108 75.6912 15.3 76.3952 15.684C77.0992 16.052 77.6992 16.62 78.1952 17.388L77.7392 18.252V15.396H81.0992V27.804C81.0992 28.956 80.8192 29.98 80.2592 30.876C79.6992 31.788 78.9312 32.5 77.9552 33.012C76.9952 33.524 75.8832 33.78 74.6192 33.78ZM74.4992 24.588C75.1072 24.588 75.6352 24.46 76.0832 24.204C76.5312 23.948 76.8752 23.588 77.1152 23.124C77.3712 22.66 77.4992 22.116 77.4992 21.492C77.4992 20.868 77.3712 20.324 77.1152 19.86C76.8592 19.38 76.5072 19.012 76.0592 18.756C75.6112 18.484 75.0912 18.348 74.4992 18.348C73.8912 18.348 73.3472 18.484 72.8672 18.756C72.4032 19.012 72.0352 19.38 71.7632 19.86C71.5072 20.324 71.3792 20.868 71.3792 21.492C71.3792 22.1 71.5072 22.636 71.7632 23.1C72.0352 23.564 72.4032 23.932 72.8672 24.204C73.3472 24.46 73.8912 24.588 74.4992 24.588ZM90.2537 28.788C88.9577 28.788 87.7737 28.492 86.7017 27.9C85.6457 27.308 84.7977 26.5 84.1577 25.476C83.5337 24.436 83.2217 23.26 83.2217 21.948C83.2217 20.62 83.5337 19.444 84.1577 18.42C84.7977 17.396 85.6457 16.588 86.7017 15.996C87.7737 15.404 88.9577 15.108 90.2537 15.108C91.5497 15.108 92.7257 15.404 93.7817 15.996C94.8377 16.588 95.6777 17.396 96.3017 18.42C96.9417 19.444 97.2617 20.62 97.2617 21.948C97.2617 23.26 96.9417 24.436 96.3017 25.476C95.6777 26.5 94.8377 27.308 93.7817 27.9C92.7257 28.492 91.5497 28.788 90.2537 28.788ZM90.2537 25.548C90.9097 25.548 91.4777 25.396 91.9577 25.092C92.4537 24.788 92.8377 24.364 93.1097 23.82C93.3977 23.276 93.5417 22.652 93.5417 21.948C93.5417 21.244 93.3977 20.628 93.1097 20.1C92.8377 19.556 92.4537 19.132 91.9577 18.828C91.4777 18.508 90.9097 18.348 90.2537 18.348C89.5977 18.348 89.0217 18.508 88.5257 18.828C88.0297 19.132 87.6377 19.556 87.3497 20.1C87.0777 20.628 86.9417 21.244 86.9417 21.948C86.9417 22.652 87.0777 23.276 87.3497 23.82C87.6377 24.364 88.0297 24.788 88.5257 25.092C89.0217 25.396 89.5977 25.548 90.2537 25.548ZM99.3825 28.5V15.396H102.983V28.5H99.3825ZM99.3825 14.22V10.62H102.983V14.22H99.3825ZM105.617 33.3V15.396H108.977V17.892L108.665 17.172C109.097 16.516 109.681 16.012 110.417 15.66C111.169 15.292 112.025 15.108 112.985 15.108C114.233 15.108 115.361 15.412 116.369 16.02C117.377 16.628 118.177 17.452 118.769 18.492C119.361 19.516 119.657 20.668 119.657 21.948C119.657 23.212 119.361 24.364 118.769 25.404C118.193 26.444 117.401 27.268 116.393 27.876C115.385 28.484 114.241 28.788 112.961 28.788C112.065 28.788 111.233 28.628 110.465 28.308C109.713 27.972 109.105 27.484 108.641 26.844L109.217 26.1V33.3H105.617ZM112.529 25.548C113.201 25.548 113.793 25.396 114.305 25.092C114.817 24.788 115.217 24.364 115.505 23.82C115.793 23.276 115.937 22.652 115.937 21.948C115.937 21.244 115.793 20.628 115.505 20.1C115.217 19.556 114.817 19.132 114.305 18.828C113.793 18.508 113.201 18.348 112.529 18.348C111.889 18.348 111.313 18.5 110.801 18.804C110.305 19.108 109.913 19.532 109.625 20.076C109.353 20.62 109.217 21.244 109.217 21.948C109.217 22.652 109.353 23.276 109.625 23.82C109.913 24.364 110.305 24.788 110.801 25.092C111.313 25.396 111.889 25.548 112.529 25.548ZM126.901 28.788C125.461 28.788 124.205 28.452 123.133 27.78C122.077 27.092 121.357 26.172 120.973 25.02L123.613 23.772C123.949 24.476 124.405 25.028 124.981 25.428C125.557 25.828 126.197 26.028 126.901 26.028C127.413 26.028 127.805 25.924 128.077 25.716C128.349 25.508 128.485 25.22 128.485 24.852C128.485 24.66 128.437 24.5 128.341 24.372C128.245 24.228 128.101 24.1 127.909 23.988C127.717 23.876 127.477 23.78 127.189 23.7L124.957 23.076C123.885 22.772 123.061 22.284 122.485 21.612C121.909 20.924 121.621 20.116 121.621 19.188C121.621 18.372 121.829 17.66 122.245 17.052C122.661 16.444 123.245 15.972 123.997 15.636C124.749 15.284 125.613 15.108 126.589 15.108C127.869 15.108 128.989 15.412 129.949 16.02C130.925 16.612 131.613 17.452 132.013 18.54L129.349 19.788C129.157 19.244 128.805 18.812 128.293 18.492C127.797 18.156 127.229 17.988 126.589 17.988C126.125 17.988 125.757 18.084 125.485 18.276C125.229 18.468 125.101 18.732 125.101 19.068C125.101 19.244 125.149 19.404 125.245 19.548C125.341 19.692 125.493 19.82 125.701 19.932C125.925 20.044 126.197 20.148 126.517 20.244L128.605 20.868C129.693 21.188 130.525 21.676 131.101 22.332C131.677 22.972 131.965 23.764 131.965 24.708C131.965 25.524 131.749 26.236 131.317 26.844C130.901 27.452 130.317 27.932 129.565 28.284C128.813 28.62 127.925 28.788 126.901 28.788ZM138.821 28.788C137.765 28.788 136.861 28.564 136.109 28.116C135.373 27.652 134.813 27.012 134.429 26.196C134.045 25.38 133.853 24.428 133.853 23.34V15.396H137.453V23.052C137.453 23.548 137.549 23.988 137.741 24.372C137.949 24.74 138.237 25.028 138.605 25.236C138.973 25.444 139.389 25.548 139.853 25.548C140.333 25.548 140.749 25.444 141.101 25.236C141.469 25.028 141.749 24.74 141.941 24.372C142.149 23.988 142.253 23.548 142.253 23.052V15.396H145.853V28.5H142.493V25.908L142.685 26.484C142.381 27.268 141.885 27.852 141.197 28.236C140.525 28.604 139.733 28.788 138.821 28.788ZM148.484 28.5V15.396H151.844V18.588L151.484 18.06C151.676 17.052 152.14 16.308 152.876 15.828C153.612 15.348 154.492 15.108 155.516 15.108C156.604 15.108 157.556 15.388 158.372 15.948C159.204 16.492 159.724 17.228 159.932 18.156L158.9 18.252C159.332 17.18 159.948 16.388 160.748 15.876C161.548 15.364 162.484 15.108 163.556 15.108C164.5 15.108 165.332 15.316 166.052 15.732C166.788 16.148 167.364 16.732 167.78 17.484C168.196 18.22 168.404 19.084 168.404 20.076V28.5H164.804V20.844C164.804 20.332 164.708 19.892 164.516 19.524C164.34 19.156 164.084 18.868 163.748 18.66C163.412 18.452 163.004 18.348 162.524 18.348C162.06 18.348 161.652 18.452 161.3 18.66C160.964 18.868 160.7 19.156 160.508 19.524C160.332 19.892 160.244 20.332 160.244 20.844V28.5H156.644V20.844C156.644 20.332 156.548 19.892 156.356 19.524C156.18 19.156 155.924 18.868 155.588 18.66C155.252 18.452 154.844 18.348 154.364 18.348C153.9 18.348 153.492 18.452 153.14 18.66C152.804 18.868 152.54 19.156 152.348 19.524C152.172 19.892 152.084 20.332 152.084 20.844V28.5H148.484Z" fill="#F2FD84"/>
</svg>
