<svg width="168" height="37" viewBox="0 0 168 37" fill="none" xmlns="http://www.w3.org/2000/svg">
<path d="M5.66656 12.8334C2.53821 12.8334 0 10.2962 0 7.16656C0 4.03692 2.53821 1.5 5.66656 1.5C8.79588 1.5 11.3331 4.03724 11.3331 7.16656C11.3331 10.2959 13.8707 12.8334 17 12.8334C20.1293 12.8334 22.6666 10.2962 22.6666 7.16688C22.6666 4.03756 25.2041 1.5 28.3334 1.5C31.4628 1.5 34 4.03724 34 7.16656C34 10.2959 31.4628 12.8331 28.3334 12.8331C18.9435 12.8331 11.3334 20.4465 11.3334 29.8328C11.3334 32.9605 8.7962 35.4994 5.66688 35.4994C2.53757 35.4994 0 32.9628 0 29.8334C0 26.7041 2.53724 24.1666 5.66656 24.1666C8.79588 24.1666 11.3325 21.6293 11.3325 18.5C11.3325 15.3707 8.7962 12.8334 5.66656 12.8334Z" fill="#F2FD84"/>
<path d="M15.5835 26.2913C15.5835 21.2029 19.7053 17.083 24.7921 17.083C29.8789 17.0833 34.0001 21.2029 34.0001 26.2913C34.0001 31.3775 29.8789 35.5 24.7915 35.5C19.7047 35.5 15.5835 31.3775 15.5835 26.2913Z" fill="#F2FD84"/>
<path d="M47.584 28.5V10.332H50.296V28.5H47.584ZM59.7308 28.788C58.4828 28.788 57.3388 28.492 56.2988 27.9C55.2748 27.308 54.4588 26.5 53.8508 25.476C53.2428 24.452 52.9388 23.292 52.9388 21.996C52.9388 20.684 53.2428 19.524 53.8508 18.516C54.4588 17.492 55.2748 16.692 56.2988 16.116C57.3228 15.524 58.4668 15.228 59.7308 15.228C61.0108 15.228 62.1548 15.524 63.1628 16.116C64.1868 16.692 64.9948 17.492 65.5868 18.516C66.1948 19.524 66.4988 20.684 66.4988 21.996C66.4988 23.308 66.1948 24.476 65.5868 25.5C64.9788 26.524 64.1628 27.332 63.1388 27.924C62.1148 28.5 60.9788 28.788 59.7308 28.788ZM59.7308 26.268C60.4988 26.268 61.1788 26.084 61.7708 25.716C62.3628 25.348 62.8268 24.844 63.1628 24.204C63.5148 23.548 63.6908 22.812 63.6908 21.996C63.6908 21.18 63.5148 20.452 63.1628 19.812C62.8268 19.172 62.3628 18.668 61.7708 18.3C61.1788 17.932 60.4988 17.748 59.7308 17.748C58.9788 17.748 58.2988 17.932 57.6908 18.3C57.0988 18.668 56.6268 19.172 56.2748 19.812C55.9388 20.452 55.7708 21.18 55.7708 21.996C55.7708 22.812 55.9388 23.548 56.2748 24.204C56.6268 24.844 57.0988 25.348 57.6908 25.716C58.2988 26.084 58.9788 26.268 59.7308 26.268ZM75.4105 33.78C74.4665 33.78 73.5945 33.628 72.7945 33.324C71.9945 33.02 71.3065 32.596 70.7305 32.052C70.1545 31.524 69.7225 30.9 69.4345 30.18L71.9305 29.148C72.1545 29.756 72.5625 30.26 73.1545 30.66C73.7625 31.06 74.5065 31.26 75.3865 31.26C76.0745 31.26 76.6905 31.124 77.2345 30.852C77.7785 30.596 78.2105 30.212 78.5305 29.7C78.8505 29.204 79.0105 28.604 79.0105 27.9V24.972L79.4905 25.524C79.0425 26.356 78.4185 26.988 77.6185 27.42C76.8345 27.852 75.9465 28.068 74.9545 28.068C73.7545 28.068 72.6745 27.788 71.7145 27.228C70.7545 26.668 69.9945 25.9 69.4345 24.924C68.8905 23.948 68.6185 22.852 68.6185 21.636C68.6185 20.404 68.8905 19.308 69.4345 18.348C69.9945 17.388 70.7465 16.628 71.6905 16.068C72.6345 15.508 73.7145 15.228 74.9305 15.228C75.9225 15.228 76.8025 15.444 77.5705 15.876C78.3545 16.292 78.9945 16.9 79.4905 17.7L79.1305 18.372V15.516H81.6985V27.9C81.6985 29.02 81.4265 30.02 80.8825 30.9C80.3545 31.796 79.6185 32.5 78.6745 33.012C77.7305 33.524 76.6425 33.78 75.4105 33.78ZM75.2665 25.548C75.9865 25.548 76.6265 25.38 77.1865 25.044C77.7465 24.692 78.1865 24.228 78.5065 23.652C78.8425 23.06 79.0105 22.396 79.0105 21.66C79.0105 20.924 78.8425 20.26 78.5065 19.668C78.1705 19.076 77.7225 18.612 77.1625 18.276C76.6025 17.924 75.9705 17.748 75.2665 17.748C74.5305 17.748 73.8745 17.924 73.2985 18.276C72.7225 18.612 72.2665 19.076 71.9305 19.668C71.6105 20.244 71.4505 20.908 71.4505 21.66C71.4505 22.38 71.6105 23.036 71.9305 23.628C72.2665 24.22 72.7225 24.692 73.2985 25.044C73.8745 25.38 74.5305 25.548 75.2665 25.548ZM91.1371 28.788C89.8891 28.788 88.7451 28.492 87.7051 27.9C86.6811 27.308 85.8651 26.5 85.2571 25.476C84.6491 24.452 84.3451 23.292 84.3451 21.996C84.3451 20.684 84.6491 19.524 85.2571 18.516C85.8651 17.492 86.6811 16.692 87.7051 16.116C88.7291 15.524 89.8731 15.228 91.1371 15.228C92.4171 15.228 93.5611 15.524 94.5691 16.116C95.5931 16.692 96.4011 17.492 96.9931 18.516C97.6011 19.524 97.9051 20.684 97.9051 21.996C97.9051 23.308 97.6011 24.476 96.9931 25.5C96.3851 26.524 95.5691 27.332 94.5451 27.924C93.5211 28.5 92.3851 28.788 91.1371 28.788ZM91.1371 26.268C91.9051 26.268 92.5851 26.084 93.1771 25.716C93.7691 25.348 94.2331 24.844 94.5691 24.204C94.9211 23.548 95.0971 22.812 95.0971 21.996C95.0971 21.18 94.9211 20.452 94.5691 19.812C94.2331 19.172 93.7691 18.668 93.1771 18.3C92.5851 17.932 91.9051 17.748 91.1371 17.748C90.3851 17.748 89.7051 17.932 89.0971 18.3C88.5051 18.668 88.0331 19.172 87.6811 19.812C87.3451 20.452 87.1771 21.18 87.1771 21.996C87.1771 22.812 87.3451 23.548 87.6811 24.204C88.0331 24.844 88.5051 25.348 89.0971 25.716C89.7051 26.084 90.3851 26.268 91.1371 26.268ZM100.553 28.5V15.516H103.265V28.5H100.553ZM100.553 13.74V10.62H103.265V13.74H100.553ZM106.436 33.3V15.516H109.028V18.204L108.716 17.58C109.196 16.844 109.836 16.268 110.636 15.852C111.436 15.436 112.348 15.228 113.372 15.228C114.604 15.228 115.708 15.524 116.684 16.116C117.676 16.708 118.452 17.516 119.012 18.54C119.588 19.564 119.876 20.716 119.876 21.996C119.876 23.276 119.588 24.428 119.012 25.452C118.452 26.476 117.684 27.292 116.708 27.9C115.732 28.492 114.62 28.788 113.372 28.788C112.364 28.788 111.444 28.58 110.612 28.164C109.796 27.748 109.164 27.148 108.716 26.364L109.148 25.86V33.3H106.436ZM113.108 26.268C113.876 26.268 114.556 26.084 115.148 25.716C115.74 25.348 116.204 24.844 116.54 24.204C116.892 23.548 117.068 22.812 117.068 21.996C117.068 21.18 116.892 20.452 116.54 19.812C116.204 19.172 115.74 18.668 115.148 18.3C114.556 17.932 113.876 17.748 113.108 17.748C112.356 17.748 111.676 17.932 111.068 18.3C110.476 18.668 110.004 19.172 109.652 19.812C109.316 20.452 109.148 21.18 109.148 21.996C109.148 22.812 109.316 23.548 109.652 24.204C110.004 24.844 110.476 25.348 111.068 25.716C111.676 26.084 112.356 26.268 113.108 26.268ZM127.314 28.788C125.986 28.788 124.818 28.46 123.81 27.804C122.818 27.148 122.122 26.268 121.722 25.164L123.81 24.18C124.162 24.916 124.642 25.5 125.25 25.932C125.874 26.364 126.562 26.58 127.314 26.58C127.954 26.58 128.474 26.436 128.874 26.148C129.274 25.86 129.474 25.468 129.474 24.972C129.474 24.652 129.386 24.396 129.21 24.204C129.034 23.996 128.81 23.828 128.538 23.7C128.282 23.572 128.018 23.476 127.746 23.412L125.706 22.836C124.586 22.516 123.746 22.036 123.186 21.396C122.642 20.74 122.37 19.98 122.37 19.116C122.37 18.332 122.57 17.652 122.97 17.076C123.37 16.484 123.922 16.028 124.626 15.708C125.33 15.388 126.122 15.228 127.002 15.228C128.186 15.228 129.242 15.524 130.17 16.116C131.098 16.692 131.754 17.5 132.138 18.54L130.05 19.524C129.794 18.9 129.386 18.404 128.826 18.036C128.282 17.668 127.666 17.484 126.978 17.484C126.386 17.484 125.914 17.628 125.562 17.916C125.21 18.188 125.034 18.548 125.034 18.996C125.034 19.3 125.114 19.556 125.274 19.764C125.434 19.956 125.642 20.116 125.898 20.244C126.154 20.356 126.418 20.452 126.69 20.532L128.802 21.156C129.874 21.46 130.698 21.94 131.274 22.596C131.85 23.236 132.138 24.004 132.138 24.9C132.138 25.668 131.93 26.348 131.514 26.94C131.114 27.516 130.554 27.972 129.834 28.308C129.114 28.628 128.274 28.788 127.314 28.788ZM139.427 28.788C138.451 28.788 137.595 28.572 136.859 28.14C136.123 27.692 135.547 27.076 135.131 26.292C134.731 25.492 134.531 24.572 134.531 23.532V15.516H137.243V23.292C137.243 23.884 137.363 24.404 137.603 24.852C137.843 25.3 138.179 25.652 138.611 25.908C139.043 26.148 139.539 26.268 140.099 26.268C140.675 26.268 141.179 26.14 141.611 25.884C142.043 25.628 142.379 25.268 142.619 24.804C142.875 24.34 143.003 23.796 143.003 23.172V15.516H145.691V28.5H143.123V25.956L143.411 26.292C143.107 27.092 142.603 27.708 141.899 28.14C141.195 28.572 140.371 28.788 139.427 28.788ZM148.857 28.5V15.516H151.449V18.324L151.113 17.892C151.385 17.012 151.881 16.348 152.601 15.9C153.321 15.452 154.145 15.228 155.073 15.228C156.113 15.228 157.033 15.508 157.833 16.068C158.649 16.612 159.193 17.34 159.465 18.252L158.697 18.324C159.081 17.284 159.665 16.508 160.449 15.996C161.249 15.484 162.161 15.228 163.185 15.228C164.081 15.228 164.889 15.436 165.609 15.852C166.345 16.268 166.929 16.844 167.361 17.58C167.793 18.316 168.009 19.156 168.009 20.1V28.5H165.297V20.844C165.297 20.188 165.177 19.636 164.937 19.188C164.713 18.724 164.393 18.372 163.977 18.132C163.577 17.876 163.105 17.748 162.561 17.748C162.017 17.748 161.537 17.876 161.121 18.132C160.705 18.372 160.377 18.724 160.137 19.188C159.897 19.652 159.777 20.204 159.777 20.844V28.5H157.089V20.844C157.089 20.188 156.969 19.636 156.729 19.188C156.505 18.724 156.185 18.372 155.769 18.132C155.369 17.876 154.889 17.748 154.329 17.748C153.785 17.748 153.305 17.876 152.889 18.132C152.473 18.372 152.145 18.724 151.905 19.188C151.681 19.652 151.569 20.204 151.569 20.844V28.5H148.857Z" fill="#F2FD84"/>
</svg>
