<svg width="27" height="17" viewBox="0 0 27 17" fill="none" xmlns="http://www.w3.org/2000/svg">
<path d="M0 10.0994V6.899H1.57194L1.5717 10.0994H0ZM3.22523 13.701C2.98898 13.701 2.76688 13.6038 2.59983 13.4272C2.43278 13.2506 2.34082 13.0159 2.34083 12.7663L2.34101 10.5091C2.34101 10.508 2.34116 10.507 2.34116 10.5059C2.34116 10.5048 2.34101 10.5037 2.34101 10.5027L2.34148 4.23291C2.34155 3.7177 2.7383 3.29849 3.22588 3.29849H4.71346L4.71273 13.701L3.22523 13.701ZM7.83527 16.7263C7.66822 16.9028 7.44618 17 7.20999 17H7.20986L6.36617 16.9998C5.87859 16.9998 5.48192 16.5805 5.48192 16.0653L5.48284 2.89484C5.48285 2.89387 5.48297 2.89296 5.48297 2.89199C5.48297 2.89102 5.48284 2.8901 5.48284 2.88913L5.48297 0.934589C5.48297 0.684935 5.57499 0.450232 5.74206 0.273734C5.90911 0.0972364 6.13115 2.82985e-05 6.36737 2.82985e-05H6.36749L7.21096 0.000185464H7.21098C7.69859 0.000228262 8.09526 0.419532 8.09523 0.934803L8.09492 6.4907C8.09492 6.49145 8.0948 6.49222 8.0948 6.49302C8.0948 6.49382 8.09491 6.49458 8.09492 6.49537L8.09438 16.0655C8.09436 16.3151 8.00234 16.5498 7.83527 16.7263ZM8.86406 10.1L8.86424 6.8996L18.1359 6.9006L18.1361 10.101L8.86406 10.1ZM20.6339 16.9999L19.7903 16.9999C19.3027 17 18.9059 16.5807 18.9059 16.0654L18.9048 0.934717C18.9048 0.419404 19.3015 0.000156761 19.7892 9.96978e-05L20.6328 0C20.869 0 21.0911 0.0971507 21.2581 0.273663C21.4252 0.450218 21.5172 0.684864 21.5172 0.934575L21.5181 14.1074C21.5181 14.1075 21.5181 14.1075 21.5181 14.1076C21.5181 14.1077 21.5181 14.1078 21.5181 14.1079L21.5182 16.0652C21.5182 16.5806 21.1215 16.9998 20.6339 16.9999ZM23.7749 13.7009L22.2874 13.7011L22.2867 3.29857L23.7742 3.29844C24.0105 3.29844 24.2326 3.39559 24.3996 3.5721C24.5667 3.7486 24.6587 3.9833 24.6587 4.23296L24.6588 6.49402C24.6588 6.49425 24.6588 6.49446 24.6588 6.49469C24.6588 6.49492 24.6588 6.49515 24.6588 6.49536L24.6593 12.7663C24.6593 13.2816 24.2626 13.7009 23.7749 13.7009ZM27 10.1016H25.4284L25.4282 6.9012H27V10.1016Z" fill="#F2FD84"/>
</svg>
