<svg width="68" height="68" viewBox="0 0 68 68" fill="none" xmlns="http://www.w3.org/2000/svg">
<rect width="68" height="68" fill="#F2FD84"/>
<path d="M53.6625 27.2613L55.0613 25.8614C55.6663 25.2559 56 24.4487 56 23.5919C56 22.7332 55.6663 21.9278 55.0595 21.3223L52.1518 18.4125L53.6295 16.9337C54.3463 16.2164 54.3463 15.0568 53.6295 14.3395C52.9127 13.6221 51.754 13.6221 51.0372 14.3395L49.5595 15.8182L46.6537 12.9102C45.4418 11.6975 43.3298 11.6957 42.1162 12.9102L40.7173 14.3101L40.237 13.8294C39.027 12.6167 36.9132 12.6149 35.6995 13.8294L34.6252 14.9046C33.3748 16.1558 33.3748 18.1923 34.6252 19.4454L40.2828 25.1073L25.1248 40.2766L19.4672 34.6074C18.2187 33.3561 16.1818 33.3598 14.9315 34.6074L13.8572 35.6825C13.2503 36.2898 12.9167 37.0971 12.9167 37.9539C12.9167 38.8125 13.2503 39.618 13.8572 40.2234L14.3393 40.7059L12.9405 42.1058C12.3337 42.7113 12 43.5185 12 44.3753C12 45.234 12.3337 46.0394 12.9405 46.6449L15.8482 49.5547L14.3705 51.0335C13.6537 51.7508 13.6537 52.9104 14.3705 53.6277C14.728 53.9855 15.1973 54.1653 15.6667 54.1653C16.136 54.1653 16.6053 53.9855 16.9628 53.6277L18.4405 52.149L21.3463 55.057C21.9532 55.6661 22.758 56 23.616 56C24.4722 56 25.2788 55.6661 25.8838 55.0588L27.2827 53.6589L27.763 54.1396C28.3698 54.7469 29.1747 55.0808 30.0327 55.0808C30.8888 55.0808 31.6955 54.7469 32.3005 54.1396L33.3748 53.0645C34.6252 51.8132 34.6252 49.7767 33.3748 48.5236L27.7172 42.8617L42.8752 27.6924L48.5328 33.3543C49.158 33.9799 49.9793 34.2918 50.8007 34.2918C51.622 34.2918 52.4433 33.9781 53.0685 33.3525L54.1428 32.2773C54.7497 31.67 55.0833 30.8646 55.0833 30.0078C55.0833 29.1492 54.7497 28.3437 54.1428 27.7383L53.6625 27.2613Z" fill="#222222"/>
</svg>
