<svg width="68" height="68" viewBox="0 0 68 68" fill="none" xmlns="http://www.w3.org/2000/svg">
<rect width="68" height="68" fill="#F2FD84"/>
<g clip-path="url(#clip0_2043_420)">
<path d="M33.9998 25.75C32.9878 25.75 32.1665 24.9305 32.1665 23.9167V13.8333C32.1665 12.8195 32.9878 12 33.9998 12C35.0118 12 35.8332 12.8195 35.8332 13.8333V23.9167C35.8332 24.9305 35.0118 25.75 33.9998 25.75Z" fill="#222222"/>
<path d="M39.4998 56H28.4998C27.4878 56 26.6665 55.1805 26.6665 54.1667C26.6665 53.1529 27.4878 52.3334 28.4998 52.3334H39.4998C40.5118 52.3334 41.3332 53.1529 41.3332 54.1667C41.3332 55.1805 40.5118 56 39.4998 56Z" fill="#222222"/>
<path d="M33.9998 56C32.9878 56 32.1665 55.1805 32.1665 54.1667V47.2917C32.1665 46.2779 32.9878 45.4584 33.9998 45.4584C35.0118 45.4584 35.8332 46.2779 35.8332 47.2917V54.1667C35.8332 55.1805 35.0118 56 33.9998 56Z" fill="#222222"/>
<path d="M33.9998 44.5416C32.9878 44.5416 32.1665 43.7221 32.1665 42.7083V36.75C32.1665 35.7361 32.9878 34.9166 33.9998 34.9166C35.0118 34.9166 35.8332 35.7361 35.8332 36.75V42.7083C35.8332 43.7221 35.0118 44.5416 33.9998 44.5416Z" fill="#222222"/>
<path d="M41.7918 48.6667H26.2085C25.4495 48.6667 24.8335 48.0507 24.8335 47.2917V46.375C24.8335 43.5939 27.094 41.3334 29.8752 41.3334H38.1252C40.9063 41.3334 43.1668 43.5939 43.1668 46.375V47.2917C43.1668 48.0507 42.5508 48.6667 41.7918 48.6667Z" fill="#222222"/>
<path d="M38.1248 37.6667H29.8748C28.1057 37.6667 26.6665 36.2275 26.6665 34.4583V28.0417C26.6665 25.2605 28.927 23 31.7082 23H36.2915C39.0727 23 41.3332 25.2605 41.3332 28.0417V34.4583C41.3332 36.2275 39.894 37.6667 38.1248 37.6667Z" fill="#222222"/>
<path d="M16.5833 37.6667C14.057 37.6667 12 35.6115 12 33.0834V28.0417C12 26.2725 13.4392 24.8334 15.2083 24.8334H17.9583C19.7275 24.8334 21.1667 26.2725 21.1667 28.0417V33.0834C21.1667 35.6115 19.1097 37.6667 16.5833 37.6667Z" fill="#222222"/>
<path d="M51.4168 37.6667C48.8905 37.6667 46.8335 35.6115 46.8335 33.0834V28.0417C46.8335 26.2725 48.2727 24.8334 50.0418 24.8334H52.7918C54.561 24.8334 56.0002 26.2725 56.0002 28.0417V33.0834C56.0002 35.6115 53.9432 37.6667 51.4168 37.6667Z" fill="#222222"/>
<path d="M51.4167 26.6666C50.4047 26.6666 49.5833 25.8471 49.5833 24.8333V21.1666C49.5833 20.1546 48.7602 19.3333 47.75 19.3333H20.25C19.2398 19.3333 18.4167 20.1546 18.4167 21.1666V24.8333C18.4167 25.8471 17.5953 26.6666 16.5833 26.6666C15.5713 26.6666 14.75 25.8471 14.75 24.8333V21.1666C14.75 18.1343 17.2177 15.6666 20.25 15.6666H47.75C50.7823 15.6666 53.25 18.1343 53.25 21.1666V24.8333C53.25 25.8471 52.4287 26.6666 51.4167 26.6666Z" fill="#222222"/>
</g>
<defs>
<clipPath id="clip0_2043_420">
<rect width="44" height="44" fill="white" transform="translate(12 12)"/>
</clipPath>
</defs>
</svg>
